<svg width="236" height="102" xmlns="http://www.w3.org/2000/svg"><defs><style>.cls-3{fill:#fff}</style></defs><path d="M0 71.75c22-9.92 67-34 71-51.07 5-21.32-31.5-30.74-36 0-3.38 23.06 0 80.81 48 80.32s97.83-32.23 125-41.65" fill="none" stroke="#dadfe9" stroke-dasharray="4 4"/><circle cx="208" cy="57" r="28" fill="#45c1ff"/><path class="cls-3" d="M215.59 52.79a7.3 7.3 0 00-14.31 0 5.11 5.11 0 00.58 10.21h3.65a.73.73 0 100-1.46h-3.65a3.65 3.65 0 010-7.3.73.73 0 00.72-.65 5.84 5.84 0 0111.61 0 .77.77 0 00.77.65 3.65 3.65 0 110 7.3h-3.65a.73.73 0 100 1.46H215a5.11 5.11 0 00.58-10.18z"/><path class="cls-3" d="M211 64.47l-1.85 1.85v-9.19a.73.73 0 10-1.46 0v9.19l-1.86-1.85a.73.73 0 10-1 1l3.1 3.1a.87.87 0 00.23.16.8.8 0 00.57 0 .87.87 0 00.23-.16l3.1-3.1a.73.73 0 000-1 .74.74 0 00-1 0z"/></svg>