<svg xmlns="http://www.w3.org/2000/svg" viewBox="0 0 512 512"><g fill="none" stroke-width="2"><path stroke="#ffd600" d="m511.71 273.5-1.63 8.52a.49.48 14.8 0 1-.64.37l-1.23-.44a.21.21 0 0 1-.11-.31q.51-.84-.35-1.52-1.13-.9-3.97-4.7-.28-.39-.67-.11-.2.14-.35.34-.33.42-.42-.11-.04-.24.05-.51.19-.6-.39-.86-1.1-.49-1.08-1.84a.4.4 0 0 0-.77-.16l-.41.96q-.18.42-.56.17l-.83-.56q-.57-.38.09-.54l1-.23a.39.39 0 0 0 .04-.75q-2.07-.74-3.33-2.59-.23-.35-.65-.4-1.45-.2-2.44-1.46-.43-.56.18-.9.37-.21.39-.61.03-.55-.44-.27l-1.42.82q-.48.28-.67-.24l-.41-1.09q-.12-.34-.43-.52-1.24-.75-1.42-2.17-.07-.54-.61-.63-1.86-.34-1.31-2.33.22-.8-.6-.64-1.55.33-1.44-1.35a.42.42 0 0 0-.58-.41q-1.18.51-2.03-.84-.35-.57.27-.82l.44-.17q.2-.08.01-.2-1.11-.66-2.28-.34a.51.51 0 0 1-.64-.59q.51-2.42-1.59-2.47a.47.47 0 0 1-.26-.85q.39-.28.7-.62a.51.23-23.1 0 0-.79-.02q-.54.59-1.35.35-.39-.12-.53-.5-1.35-3.9-5.19-5.26-.19-.06-.19.13 0 .15.01.29a.27.27 0 0 1-.53.08q-.59-2.26-2.93-2.9-.7-.19-.56-.89l.22-1.14q.07-.33-.26-.38l-1.64-.25a.51.51 0 0 1-.26-.89q.65-.58.85-1.42.14-.59-.4-.31-1.14.6-1.38 2.08-.06.37-.53.35a.45.45 0 0 1-.41-.58l.58-1.97q.15-.52-.3-.81-2.57-1.64-5.61-1.78a.26.26 0 0 1-.05-.52l.7-.18q.52-.13.47-.66l-.08-.71q-.08-.78-.84-.57-.97.27-1.03-.39a.42.42 0 0 0-.64-.32l-.73.44q-.69.42-.68-.39l.05-2.69a.42.42 0 0 0-.77-.23q-.51.81-1.13-.02a1.92.08 52.8 0 1-1.04-1.5q.19-2.13-1.96-1.83-.56.08-.83-.42-.23-.44.26-.69a1.03.84 26.6 0 0-.74-1.66q-2.18-.02-1.92-2.38a.97.96 70.6 0 0-1.64-.79l-.36.37q-.5.5-.65-.19l-.31-1.45q-.13-.61-.74-.51-.92.14-1.52-.74-.18-.28.06-.52l.18-.19a.48.48 0 0 0-.08-.75l-.6-.37q-.32-.2-.23-.57.05-.21.19-.34.34-.32-.08-.51-1.21-.55-2.25 0-.71.37-.63-.42.2-2.19-1.49-3.43-.14-.11-.26.02-.41.38-1.2.26-.44-.07-.68-.45l-1.47-2.36q-.27-.43-.72-.67-2.02-1.07-1.51-3.66.09-.42-.3-.6l-.67-.3a.5.5 0 0 0-.49.86q1.4.96.45 2.59-.43.74-.52-.12-.31-2.67-2.82-3.94-.2-.1-.36.05l-.19.2q-.52.52-.71-.19l-.37-1.41q-.12-.46-.45-.79l-4.27-4.35q-.42-.42-.9-.09l-1.47 1q-.68.47-.6-.35l.09-.93a.58.57 11.8 0 1 .75-.49q.44.14.66-.21.32-.53-.3-.53h-1.8q-.62 0-.62-.62v-2q0-.38-.38-.38h-.76q-.63 0-.75-.62-.46-2.39-2.74-2.5a.66.66 0 0 1-.25-1.25q.14-.07.3-.12.68-.26-.05-.26h-1.02q-.74 0-.6-.72.27-1.39-.94-2.06-.45-.24-.3.24l.12.37a.35.35 0 0 1-.52.4q-1.6-1.01-1.06-2.87.19-.67-.51-.75-2.46-.28-2.62-2.61-.04-.5-.31-.93l-1.98-3.03q-.39-.6-.61.08l-.25.77q-.13.4-.43.1l-.34-.35q-.35-.34-.47-.8l-.53-2.01q-.12-.48-.57-.25l-.81.41q-.44.22-.81-.09-.41-.36-.46-.86-.02-.31-.21-.54l-1.43-1.85q-.04-.05-.09-.03-.12.06-.25.13a.18.18 0 0 1-.25-.13q-.41-2.13-2.55-1.59a.45.45 0 0 1-.57-.44v-.55a.39.39 0 0 0-.72-.21l-.18.29q-.35.53-.81.08l-.63-.64q-.29-.28-.03-.59.84-1.03-.15-1.98-.44-.41-.9-.03-.71.59-1.43.34-.75-.27-.98-1.18-.27-1.03.43-1.69.36-.33.39-.82.01-.15.01-.3-.01-.81-.5-.16l-.32.42q-.31.42-.68.05l-1.56-1.56q-.38-.38-.76 0l-.19.19q-.37.38-.74 0l-.85-.84q-.55-.55.2-.75l.95-.25a.54.54 0 0 0 .34-.78l-.16-.29q-.2-.37-.5-.07l-.33.33q-.52.52-.77-.18l-.12-.33q-.12-.33-.47-.27-.53.1-.14.57.1.12.27.11l.26-.02a.38.38 0 0 1 .27.68q-.82.62-1.46.27-.36-.2-.49-.77-.26-1.13-.28-2.35-.01-.64-.64-.56-.73.1-1.04-.52-.1-.22.05-.41l.35-.45q.37-.46-.22-.53-2.03-.21-1.66-2.49a.38.24 68.2 0 0-.51-.37l-.1.49a.31.31 0 0 1-.42.23q-1.76-.73-2.88-2.18-.39-.51-.96-.81-1.92-.99-2.12-3.21-.09-1.01-.58-.12l-.27.48a.41.41 0 0 1-.77-.25q.27-1.88-1.38-2.1a.51.51 0 0 1-.41-.68l.36-.97q.1-.27-.19-.23l-.87.13q-.67.11-.67-.58 0-1.84-1.91-1.55a.45.45 0 0 1-.27-.84l.76-.39q.43-.22-.01-.41-.96-.44-.86-1.41.01-.16-.15-.11l-1.62.54q-.46.16-.68-.27-.48-.95.63-1.36.93-.34-.05-.46l-3.61-.44q-.52-.06-.77-.51-.52-.91.3-1.55a.97.97 0 0 0-.84-1.7q-2.15.56-1.96-1.53.03-.44-.41-.44h-1.8a.62.62 0 0 1-.26-1.18l.43-.21a.49.48-26.8 0 0 .23-.67l-.2-.37q-.29-.52-.71-.1l-.44.44a.52.52 0 0 1-.85-.56q.64-1.69-1.53-1.41a.65.64 12.2 0 1-.64-.98q.37-.58-.32-.88-.1-.04-.15.05l-.26.49a.41.4 36.3 0 1-.64.09l-.2-.2a.39.39 0 0 1 .11-.62l.49-.22q.14-.07.06-.21-.06-.12-.11-.26a.28.28 0 0 0-.52.01l-.17.47q-.26.72-.75.13l-2.81-3.4q-.21-.26-.43-.02-.48.51-1.2.36-.84-.18-.23-.79l.45-.44q.23-.23-.08-.34l-.81-.27q-.46-.15-.73-.55-1.18-1.67.14-2.98.41-.4-.14-.57-.18-.05-.46.03" vector-effect="non-scaling-stroke"/><path stroke="#806e00" d="M336.94 108.96c3.67-7.31.84-16.28-6.5-19.62q-2.96-1.35-9.57-1.34-27.81.02-55.56-.02" vector-effect="non-scaling-stroke"/><path stroke="#ffd600" d="m265.31 87.98-5.65-.3a.79.78 78.9 0 1-.68-.46q-.38-.85-1.37-.6-.48.12-.52-.37l-.27-2.94a.29.29 0 0 0-.55-.09l-.32.68q-.43.95-1.14.19l-1.3-1.38a.22.21 37.6 0 0-.35.04q-.17.32-.5-.1-.22-.27-.2-.62.1-1.52-1.17-2.27-.46-.28-.43-.81l.06-1.26q.04-.57-.52-.69-2.33-.51-2.55-2.75-.09-.88-.49-.09-.84 1.65-2.65.4-.32-.23-.1-.56.09-.14.08-.3-.04-.41-.43-.31l-1.25.3q-.64.15-.15-.28 1.1-.98 0-2.3-.26-.3-.81-.24-.52.07-.75-.4l-1.51-3.1a.36.35-35.8 0 0-.57-.09l-.2.2q-.14.15-.34.08-2.24-.74-1.11-1.66a.46.46 0 0 0-.31-.82q-.99.05-1.22-.62-.2-.58-.82-.58h-1.46a.36.35 82.5 0 1-.34-.27q-.24-.81.36-.29a.22.22 0 0 0 .36-.23q-.43-1.47-1.46-1.19-.59.15-.61-.46l-.06-1.37q0-.19.17-.11.17.09.34.17a.3.29-10.8 0 0 .33-.48q-1.35-1.19-2.99-.46-.28.12-.43-.15l-.79-1.41q-.21-.36.03-.71.41-.61.18-1.41a.35.35 0 0 0-.66-.03l-.27.75q-.32.89-.7.02-.39-.89.44-1.38a.39.39 0 0 0-.22-.73q-1.72.09-1.58-1.68.04-.46-.4-.35l-.5.13a.16.15-14.1 0 0-.11.18q.14.59-.07 1.08-.3.67-.39-.06l-.36-2.89q-.09-.76-.75-.37l-.44.26q-1.09.65-.33-.29.14-.17.37-.31a.37.37 0 0 0-.17-.69q-2.25-.17-3.99-1.7-.23-.2-.01-.41.09-.09.21-.2a.5.5 0 0 0-.61-.79l-.38.25q-.22.14-.39-.07l-2.23-2.9q-.06-.08.01-.15l.23-.23q.44-.44-.12-.72l-.83-.42q-.41-.21-.44-.67-.09-1.5-1.66-1.25a.5.5 0 0 1-.58-.46q-.17-2.18-1.92-1.71-.48.13-.84-.23l-1.56-1.6q-.4-.4-.47-.96-.17-1.18-1.53-1.58-.35-.1-.61.16l-.18.19a.43.43 0 0 1-.72-.41q.29-1.13-.69-1.42a.38.37 30.6 0 1-.16-.62l.39-.38q.41-.41-.04-.78-.71-.58-1.42.23-.3.34-.27.79.02.34-.27.49a.4.39 83 0 1-.56-.44q.67-2.94-2.3-2.22a.34.34 0 0 1-.33-.55q.82-.92.6-1.98-.19-.92-1.34-1.66-1.93-1.24-4.16-2-.68-.23-.12-.67.61-.48.46-1.28-.13-.67-.71-.31-1.83 1.12-2.67-.76-1.28-2.86-3.71-3.86-.44-.18-.58-.63-.48-1.5-1.77-2.45-.42-.31-.05-.68l.26-.26a.48.48 0 0 0-.47-.81l-2.43.68a.28.28 0 0 1-.21-.51l.44-.23q.5-.27.09-.67l-1.6-1.53a.36.36 0 0 0-.5 0l-.22.22q-.25.25-.49 0-.63-.65-1.5-.27-.66.3-.61-.43l.05-.66a.22.22 0 0 1 .39-.13l.61.7a.71.71 0 0 0 1.21-.67L179 6.26a.13.13 0 0 0-.24-.02q-.08.15-.12.32-.04.19-.13.02l-.28-.57q-.17-.34.21-.36.84-.03 1.11-1.11" vector-effect="non-scaling-stroke"/><path stroke="#806900" d="M265.31 87.98q-25.18.04-50.31.02-3.74 0-6.87 1.82" vector-effect="non-scaling-stroke"/><path stroke="#fc0" d="m208.13 89.82-.06-1.14q-.02-.39-.41-.3l-.41.1q-.17.05-.31-.06-1.84-1.33-3.18.29a.33.33 0 0 1-.59-.2q-.03-1.31-1.02-1.65-.41-.13-.78-.34-1.53-.87-1.15-1.95.09-.26-.17-.36-1.26-.49-.92-1.84a.49.49 0 0 0-.57-.59q-2.38.47-2.42-1.44a.27.27 0 0 1 .44-.21l.48.4q.44.36.82-.07.66-.75-.5-1.47a.75.74 60.5 0 0-.39-.11h-2.02a.74.72-11.7 0 1-.67-.43l-1.54-3.34q-.21-.46-.65-.72-1.18-.71-2.43-1.47-3.11-1.87-2.29-5.22.1-.39-.3-.44-.21-.02-.43-.03-.49-.02-.61.45l-.19.7q-.3 1.12-.5-.02l-.38-2.06a.39.38-19.2 0 0-.57-.27l-1.26.7q-.86.48-.44-.41l.28-.61q.25-.55-.33-.71-2.26-.64-3.53-2.62-.31-.49-.9-.5h-.57a.34.34 0 0 1-.22-.6q1.1-.94.28-2.04a.42.42 0 0 0-.76.3q.16 1.44-1.35 1.06-.29-.08-.05-.25l.43-.33a.52.5-41.9 0 0 .05-.78l-2.92-2.72q-.15-.15.05-.23l.42-.17a.2.2 0 0 1 .28.2q-.01.36.25.55.35.24.65-.06l1.02-1.03q.61-.61-.25-.56-2.83.13-5.14-1.74-.21-.18-.02-.37l.31-.3a.51.51 0 0 0-.33-.87l-.95-.07q-.78-.06-.78.72v.63q0 .11-.11.13-.66.13-.27-.36a.66.65 34.9 0 0-.18-.97q-1.7-1.01-.39-2.22a.5.5 0 0 0-.29-.86l-.8-.07a.68.68 0 0 0-.75.68q-.01.41-.23.65a.19.18 77.9 0 1-.3-.2l.9-2.31a.52.52 0 0 0-.63-.69q-1.94.54-2.75-1-.22-.41-.59-.13l-.68.51q-.68.51-.49-.32.25-1.11 1.39-1.15a.38.38 0 0 0 .04-.75l-2.64-.36q-.48-.07-.79-.43-1.32-1.51-1.88-3.38-.67-2.17-1.37-2.83-1.23-1.14-3.01-1.43-.9-.14-.26-.79.75-.76-.02-1.58a.19.18 22.8 0 0-.32.13q.03 1.21-.93 1.18-.3-.01-.28-.3l.11-1.84a.62.61-88.7 0 0-.61-.65h-2.74q-.63 0-.58-.62.21-2.59-1.49-4.56-.29-.33-.47.07l-.42.94a.37.37 0 0 1-.68-.01q-.82-2.07-2.46-1.64-1.14.31-.35-.57l.71-.79a.45.45 0 0 0-.27-.74q-1.62-.25-1.47-1.5.06-.61-.54-.72l-1.46-.26q-.14-.03-.08-.15.14-.26.23-.51.21-.58-.39-.74l-2.5-.66q-.33-.08-.34-.41l-.12-2.54a.36.36 0 0 0-.58-.26q-1.42 1.16-2.9-.24-.14-.14-.15-.29-.01-.16.08-.29.25-.37.51-.01.52.71 1.29.49a.3.3 0 0 0-.11-.59q-.48.04-.9-.3-.54-.44.15-.58.71-.14 1.34.22.46.26.47-.27 0-.46-.25-.97" vector-effect="non-scaling-stroke"/><path stroke="#806300" d="M208.13 89.82q-7.25 4.52-7.25 12.06v47.34" vector-effect="non-scaling-stroke"/><path stroke="#ffbf00" d="m200.88 149.22-.18 24.8q-.01.53-.33.95-.77 1.03-.73 2.27.03.66-.44.19-.38-.38-.11-.96.62-1.32-.18-2.09-.48-.46-.68.17-.42 1.42-1.71 2.27a.26.25-20.9 0 1-.39-.17q-.25-1.49.74-2.52a.51.51 0 0 0-.61-.81l-2.56 1.35a.33.33 0 0 1-.34-.56l.43-.32a.4.4 0 0 0-.12-.71q-1.17-.33-.6-1.26.35-.58-.3-.77-1.28-.38-1.48-1.72a.58.57 80 0 0-.68-.48q-.69.14-1.32-.05a.39.39 0 0 1 .22-.75q.52.14.99-.11a.48.48 0 0 0-.22-.9l-3.35-.08q-.5-.01-.74-.45-.48-.84-1.31-.58-.66.2-.71-.49l-.07-.77q-.03-.41.36-.55 1.09-.38.52-2.1a1.73 1.71 87.6 0 0-1.2-1.12q-1.41-.35-1.91.64a.41.41 0 0 1-.77-.15q-.04-.57-.6-.73-.76-.23-.44-.96l.4-.93q.14-.33-.01-.66l-.61-1.34q-.27-.57-.58-.02-.43.79-1.63.72-.59-.04-.51-.63.24-1.75-1.64-1.9-.63-.05-.6-.68.02-.39.41-.39.9.02.31-.67-.89-1.03-1.75-.61-.5.25-.48-.31.03-1.08-.83-1.62-.37-.24-.18-.62.48-.97-.52-1.25-.57-.16-.71-.16l-.39.01q-.44.01-.25-.4.09-.19.32-.11a.31.31 0 0 0 .36-.48l-.5-.7q-.25-.35-.56-.05l-.3.3q-.33.33-.61-.04l-.39-.52q-.24-.32-.14-.71l.25-.92a2 1.77-20.5 0 0-3.44-1.31q-.42.5-.86-.08-.26-.34.09-.59l.37-.27a.41.41 0 0 0-.07-.7q-.68-.31-1.13.33a.34.34 0 0 1-.61-.1q-.61-2.04-2.52-2.68-.46-.16-.12-.5l.29-.29q.63-.64-.24-.85l-.53-.13q-.48-.11-.8-.49-1.09-1.29-2.73-1.73-.37-.1-.43-.48-.15-1.05-1.21-1.28-.51-.11-.62-.63-.07-.32.15-.52.41-.39.46-.95.06-.69-.25-1.26a.33.33 0 0 0-.6.25q.22.73-.52 1.05-.49.21-.96-.03-1.51-.78-1.65-2.5a.43.43 0 0 0-.73-.27l-.38.38q-.42.42-.59-.14c-.21-.73-.01-2.36-.28-2.75q-.17-.25-.45-.31-.67-.13-.67.55v.49a.3.3 0 0 1-.6.05l-.25-1.28q-.11-.6-.65-.89l-2.6-1.39q-.41-.22-.23-.65l.94-2.23q.19-.46-.29-.61l-1.49-.48a.59.59 0 0 0-.72.36l-.39 1.14q-.13.37-.22-.01c-.29-1.37-.52-2.21-1.85-3.27q-.42-.33-.41-.86.03-1.44-1.26-1.22a.45.44 87.1 0 1-.52-.48l.11-1.13q.06-.61-.46-.95l-4.37-2.84q-.41-.27-.18-.7.32-.62-.97-1.06-.37-.13-.76-.07-.48.09-1 .08-.5-.01-.63-.49-1.17-4.61-5.01-5.71-1.81-.51-1.83-1.76 0-.5-.3-.91l-2.5-3.43q-.26-.37-.71-.41l-2.06-.2a.39.39 0 0 1-.17-.72l.43-.26q.78-.48-.09-.77-1.02-.33-2.11-.16a.56.56 0 0 1-.65-.65q.28-1.57-1.33-1.36-.19.03-.28-.14l-.19-.35q-.23-.42.23-.31.75.17 1.1-.22.65-.7 0-1.48a.26.26 0 0 0-.43.04l-.26.49q-.36.66-.69-.02-.63-1.27-1.2-.43a.32.32 0 0 1-.58-.19q.02-.3.46-.41a.42.42 0 0 0-.03-.82l-2.06-.38q-.45-.08-.23-.48l.54-1q.36-.66.79-.05l.27.39a.37.36-58.3 0 0 .66-.16q.16-.94-.16-1.79a.24.24 0 0 0-.39-.08l-.55.56q-.47.47-.71-.16-.43-1.17-.82-.58-.26.4-.7.22-2.49-.99-2.62-3.43-.03-.63-.59-.91-.97-.48-3.56-1.37-1.89-.66-3.01-3.4-.15-.38-.51-.18-.14.08-.27.13-.41.15-.23-.25l.61-1.33q.24-.53-.33-.66-.65-.15-1 .36a.59.59 0 0 1-.99-.04l-1.66-2.86q-.43-.74.43-.74h.48q.64 0 .6-.64-.03-.52-.5-.83-.26-.17-.89-.15-1.07.03-1.67-.84-.35-.5-.71-.01-.11.15-.26.27a.3.3 0 0 1-.47-.35l.54-1.17q.23-.51-.33-.48-1.6.08-1.88 1.46-.11.49-.46.14l-.41-.42q-.35-.35-.42-.83-.15-.91-.94-1.4-.3-.18-.11-.48l.21-.31q.3-.46-.22-.66-3.97-1.46-6.49-4.93-.29-.41-.79-.37-1.64.14-2.23-1.31-.18-.45-.59-.74-3.07-2.14-4.46-5.51-.28-.67-1.01-.67h-1q-.26 0-.1-.21.15-.19.53-.11a.62.61 24.3 0 0 .6-.22l.95-1.2a.73.73 0 0 0-.92-1.09l-1.3.7q-.35.18-.52-.17l-.43-.85q-.28-.55-.89-.67l-1.32-.25q-.37-.07-.02-.21l.57-.23q.34-.13.15-.44l-.18-.28q-.27-.41-.61-.06-.24.24-.55.38-.43.2-.65-.22-.1-.17-.21-.43" vector-effect="non-scaling-stroke"/><path stroke="#805c00" d="m200.88 149.22.01 47.32a.46.46 0 0 1-.46.46q-47.43.02-94.43.01-6.37-.01-11.2 5.25" vector-effect="non-scaling-stroke"/><path stroke="#ffb100" d="m94.8 202.26-3.81-5.89a.5.5 0 0 0-.9.14q-.18.63-.82.51a.79.78 73.8 0 1-.41-.23q-1.65-1.73-.6-2.03 1.73-.51-.2-.56-1.33-.04-1.18-1.34.07-.65-.58-.69l-2.85-.2q-.52-.03-.56-.55l-.32-4.22a.14.14 0 0 0-.25-.08l-.17.21q-.41.51-.98.19l-5.87-3.29q-.41-.23-.35-.7l.24-2.03a.6.59 86.6 0 0-.73-.65q-1.23.28-1.53-.8a.58.58 0 0 0-.15-.26l-2.52-2.52a.09.08-60 0 0-.14.04q-.12.41-.37.5-.61.21-.61-.44l-.01-.93q0-.94-.83-.49l-.57.32a.38.38 0 0 1-.54-.22q-.41-1.21.4-2.33.08-.11.04-.32a.12.12 0 0 0-.23-.03l-.27.5q-.5.95-1.01 0l-.37-.68q-.3-.56-.67-.05l-.48.68a.38.38 0 0 1-.63-.42q1.08-1.7.71-3.54a.29.29 0 0 0-.49-.15l-.34.35q-.4.4-.57-.14-.43-1.36-1.39-2.26-.54-.49-1.17-.26a.12.11 40.9 0 0 .02.22l.57.13q.61.14.14.55l-.53.46q-.72.64-1.29-.14-1.1-1.51-.09-2a.13.13 0 0 0-.03-.24q-.5-.12-.37.17.2.45-.29.4l-1.47-.14a.29.29 0 0 1-.18-.5l.34-.34q.42-.42.03-.87-.9-1.02-2.04-.67-.48.14-.39-.36.04-.25.25-.42.47-.4-.14-.32l-1.14.15q-.22.03-.23-.19l-.1-2.08a.54.41-54.5 0 0-.91.29v.68q0 .51-.46.27-.32-.18-.37-.57-.04-.34.28-.78.4-.56.61-1.25.05-.17-.1-.24-.69-.34-1.21-1.08-.27-.38-.73-.41-1.24-.07-1.03-1.36.09-.58-.47-.44-1.26.31-2.11-.43-.47-.41-.68-1.62-.41-2.5-2.5-2.56a3.71 3.39-88.9 0 1-3.27-3.73q.01-.76-.79-1.1-.33-.14-.7-.11l-.85.09a.46.46 0 0 1-.26-.86q.86-.44.47-1.13-.15-.27-.45-.23-1.19.16-1.6 1.16a.19.19 0 0 1-.35.01q-.07-.15-.14-.29-.11-.23.1-.38 1.19-.87.27-2.16-.72-1.03-1.56-.69-.4.16-.81.03-1.17-.36-1.03-1.59a.6.6 0 0 0-.36-.63q-2.61-1.09-3.01-3.84-.05-.31-.35-.22-1.45.47-.43.86a.39.39 0 0 1-.06.74l-1.15.24a.95.95 0 0 1-.68-1.75q.91-.55 1.29-1.5a.69.67-19.9 0 0-1.24-.56q-.06.11-.09.19a.47.42 30.6 0 1-.72.14q-.59-.49-.7-1.29-.07-.43-.32-.79-.3-.43-.43-.11-.18.41-.58.24l-1.59-.68q-.51-.21-.63-.75-.59-2.6-3.04-3.18-.5-.12-.39-.62l.1-.49q.14-.63-.47-.43l-.59.19q-.34.11-.53-.18-.55-.81-1.4-1.34" vector-effect="non-scaling-stroke"/><path stroke="#806900" d="M336.94 108.96c-3.85 6.55-8.55 7.56-16.32 7.55q-45.41-.04-90.82 0-.51 0-.51.51l.02 11.04" vector-effect="non-scaling-stroke"/><path stroke="#806300" d="M229.31 128.06q-.1 40.79-.06 81.81.01 4.77-1.26 7.53c-3.86 8.41-11.84 8.52-20.71 8.27" vector-effect="non-scaling-stroke"/><path stroke="#805c00" d="m207.28 225.67-86.59-.05a.55.55 0 0 0-.55.55l.01 44.57" vector-effect="non-scaling-stroke"/><path stroke="#805500" d="M120.15 270.74q-.05 23.16-.02 46.39.01 6.1-.97 8.62c-4.53 11.53-20.87 12.01-26.14.98q-1.37-2.87-1.38-8.7-.08-53.58 0-107.16.01-4.89 3.16-8.61" vector-effect="non-scaling-stroke"/><path stroke="#fc0" d="M502.47 362.04q-.57 1.29-1.16-1.06-.11-.45-.2 0-.37 1.88-1.06 3.65-.28.71-.79.92-.65.27-1.35-.01-.54-.21.01-.39 1.13-.36.71-1.46a.89.88-86.7 0 0-.44-.5q-1.4-.7-2.3.1-.5.44-.76-.17-.57-1.29-2.15-1.2-.53.02-.73-.46-.61-1.47-.26-3.05a.35.34 82.1 0 0-.5-.38q-.43.23-.37.48.58 2.35-.99.12-.36-.5-.27-1.13.11-.73-.77-.1-.95.69-1.42-.51-.18-.45.25-.69l.51-.28q.53-.29.12-.73l-1.93-2.06q-.26-.28-.43.06l-.2.43a.42.42 0 0 1-.64.16l-.36-.27a.17.17 0 0 1 0-.27l.56-.42a.38.38 0 0 0-.18-.68l-.86-.11a.65.63 75.6 0 1-.47-.29q-1.42-2.1-3.74-3.02-.51-.2-.33-.71.5-1.44-.52-2.3-.38-.31-.58-.75-.31-.68-.8-1.3-.34-.42-.24-.95.29-1.54-1.05-1.68-.51-.05-.66.44-.05.16-.18.34-.26.35-.56.03-1.17-1.24-2.96-.93a.3.29-72.9 0 1-.26-.5l.47-.5a.54.54 0 0 0-.01-.76l-.93-.93a.43.43 0 0 0-.67.09l-.18.32a.4.4 0 0 1-.72-.34q.11-.32.44-.4a.35.35 0 0 0 .05-.65q-1.25-.56-1.76.27a.4.4 0 0 1-.73-.33q.3-.99-.73-1.22a.47.47 0 0 1-.17-.84l.61-.43q.13-.1-.02-.16l-.55-.22q-.05-.03-.06.03-.02.46-.71.55a.45.44 82.3 0 1-.5-.39l-.35-2.97q-.02-.14-.15-.16-.28-.06-.33.47-.02.27-.02.55.01.6-.27 1.14-.53 1.04-.66-.11-.15-1.33-1.39-2.16-.41-.27-.86-.06-.79.38-1.47-.59-.11-.16 0-.31l.2-.3q.31-.46-.06-.88-.7-.8-1.57-1.33-.38-.24-.05-.54l.2-.19a.58.58 0 0 1 .85.05l1.14 1.39q.33.39.61-.04l.37-.56q.16-.26-.1-.41l-5.6-3.26q-.42-.25-.58-.71-.21-.63-.95-.36a.67.66 76.1 0 1-.88-.54l-.29-2.05a.47.47 0 0 0-.43-.41l-2.76-.21q-.96-.07-.28-.75l.34-.35q.24-.23.13-.54-.08-.25-.3-.19-.48.15-.58-.34-.18-.87.51-.89a.27.27 0 0 0 .07-.53q-.86-.26-1.39.23a.72.72 0 0 1-1.21-.53l.01-1.42a.53.53 0 0 0-.52-.54l-1.92-.03a.32.32 0 0 1-.3-.41l.32-1.16a.43.41 24.6 0 0-.18-.46q-.73-.46-.39-1.23a.45.45 0 0 0-.38-.64l-.96-.06a.49.47 11.4 0 0-.48.31l-.44 1.15a.25.25 0 0 1-.48-.12q.26-1.76-.95-2.82a1.04.06 73.8 0 1-.31-.88q-.24-.8.82-1 .57-.11.05-.38l-.67-.35q-.83-.44-1.57.14-1.05.82-2.46.74-.55-.03-.43-.57l.54-2.61q.1-.47-.38-.52-2.34-.22-3.11-2.63a.29.29 0 0 0-.56.04l-.09.61a.77.77 0 0 1-.76.65h-.47a.35.35 0 0 1-.29-.55l1.47-2.21q.19-.28-.07-.51l-1.1-.94a.37.37 0 0 0-.58.13l-.4.92a.47.47 0 0 1-.9-.16l-.07-1.62q-.02-.53-.52-.7-2.73-.93-3.66-3.7-.11-.33-.44-.46-.34-.13-.39-.49a.39.38-36.1 0 0-.73-.11q-.09.18-.22.38-.38.55-.78.02l-.3-.41q-.16-.21-.41-.28l-1.09-.3q-.43-.12-.25-.53l.32-.74a.52.51 29.1 0 0-.18-.62q-1.37-.99-1.53-2.66-.03-.34-.38-.37-1.19-.1-1.56.71-.08.19-.28.18-.18-.01-.27-.18-.16-.31.13-.49.88-.53.17-1.56-.25-.35-.66-.43-2.26-.46-3.32-2.52-.18-.35-.57-.33l-1.34.04q-.42.01-.55-.39l-.46-1.43q-.16-.51-.7-.55-3.72-.21-3.92-4.06-.03-.58-.43-.17l-.36.36q-.26.26-.29-.11l-.02-.3a.56.55-22.3 0 1 .21-.49q1.25-1.01.78-2.72-.13-.48-.54-.2l-1.42.99" vector-effect="non-scaling-stroke"/><path stroke="#806900" d="M403.91 272.31q-.03-43.93-.15-87.81c-.03-11.18-10.8-18.65-20.91-14.59q-3.01 1.21-6.7 4.91-23.25 23.29-46.52 46.53" vector-effect="non-scaling-stroke"/><path stroke="#fc0" d="M329.63 221.35q-.59-1.01-.04-1.74.05-.07.14-.03l.31.17a.29.28 11.1 0 0 .42-.28l-.12-1.07a.55.55 0 0 0-.96-.29l-.58.67a.38.38 0 0 1-.67-.19q-.03-.26-.25-.48-.58-.57-.84.21-.12.36-.42.46-.41.13-.51-.29-.06-.28.03-.53.18-.49.09-.99-.24-1.4-1.7-1.04-.65.15-.65.82v.72a.3.3 0 0 1-.58.09q-.65-2 .08-3.91.11-.3-.16-.48-.88-.57-1.25.24-.27.57-.57.02-1.07-2.01-2.98-3.54-.34-.27-.75-.4-2.81-.89-2.63-3.96a.49.48 64.2 0 0-.88-.31q-.2.29-.42.51a.39.33-8.9 0 1-.62-.37q.18-.23.37-.24.99-.09.27-.82-1.95-1.98-2.82-4.63-.17-.51-.63-.22-1.13.7-1.88-.5-.05-.08-.32-1.02-.24-.84-1.27-.92-.46-.03-.74-.4l-2.61-3.38q-.27-.35-.46.04l-.19.36a.21.21 0 0 1-.39-.09q-.07-3.27-2.97-4.35-.26-.09-.48.08l-.47.39a.25.15-70.8 0 1-.08-.4q1.66-1.47.27-2.95-.59-.63-.59.23v.69q0 .62-.61.62h-.74a.59.57 86.6 0 1-.57-.52l-.2-1.79q-.06-.53-.59-.57l-3.76-.31q-.34-.03-.37-.38l-.24-3.75a.46.46 0 0 0-.78-.3l-.2.21q-.33.32-.69.04l-2.68-2.1q-.19-.14-.02-.31l.2-.21q.26-.25.01-.51l-3.34-3.45q-.36-.37-.41-.87-.07-.75-.77-1.06-.35-.15-.75.01-.35.13-.7.35-.35.21-.65-.06l-1.88-1.71q-.43-.4-.23-.95l.34-.92q.16-.42-.27-.55-1.35-.41-2.73.46-.21.13-.42.12-.29-.02-.22-.3l.26-.99a.29.29 0 0 0-.11-.32l-.61-.44q-.25-.19-.02-.4.63-.57.53-1.25-.05-.36-.38-.5l-3.82-1.69q-.92-.4.03-.74l.75-.28q.99-.35-.04-.56-3.83-.78-4.41-4.87a.54.54 0 0 0-1.04-.1l-.3.91q-.07.18-.23.07l-.72-.52q-.35-.25 0-.5.31-.22.53-.23a.95.92 52.6 0 0 .21-1.84l-.98-.31q-.51-.16-.38-.69.2-.8-.21-1.5-.41-.68-.77.03-.46.93-.22 2 .04.18-.15.18-.15 0-.28-.01-.17-.01-.22-.16-.98-3.04-3.89-4.53-.23-.12-.37.1-.12.18-.32.26-.34.13-.16-.19l.79-1.42q.28-.5-.14-.89l-1.37-1.25q-.34-.31-.76-.1l-1.4.71q-.43.23-.67-.2l-1.48-2.64q-.19-.34.06-.63.12-.15.37-.25.17-.07 0-.14l-4.47-1.84a.74.73 19.9 0 1-.43-.9q.61-1.95-1.22-1.95-.53-.01-.81-.45-.9-1.41-2.52-1.58a.47.46-78.5 0 1-.39-.6q.33-1.08-.53-1.34-.49-.15-.32-.62l.2-.55q.19-.54-.36-.66l-1.19-.26q-.44-.09-.65-.49l-1.95-3.71a.96.96 0 0 0-1.08-.49q-.98.24-1.45-.59-.13-.24-.02-.49.32-.7.1-1.5-.18-.69-.7-.2-.65.61-1.1-.04-.2-.29.14-.37l.53-.13a.3.3 0 0 0 .08-.55l-1.06-.62a.19.18-74.5 0 0-.28.16v.48q0 .1-.05.02-.4-.56-1.07-.41-.44.1-.46-.34-.05-.86.75-1.2a.54.54 0 0 0 0-1q-.84-.34-.47-1.54.3-.97-.64-.6-.87.34-1.48 1.05-.22.25-.23.54-.01.38.19.59.3.32.37-.11.04-.3.43-.02a.29.29 0 0 1 .03.44l-.52.52q-.4.41-.46.98l-.54 5.89" vector-effect="non-scaling-stroke"/><path stroke="#806300" d="m329.63 221.35-58.74 58.75" vector-effect="non-scaling-stroke"/><path stroke="#ffbf00" d="M270.89 280.1q.34-1.03-.79-1.58-.45-.22-.79.14-1.57 1.67-3.77 2.11-.64.12-.44-.49.35-1.12-.5-1.38a.49.49 0 0 1-.25-.75l.66-.93q.3-.42-.04-.8l-.96-1.07q-.31-.35.47-.47.15-.03.27-.13a.36.36 0 0 0-.22-.64q-2.35-.06-2.76 2.18-.09.51-.61.6-.31.05-.6-.08-.45-.22-.1-.58l.64-.64a.41.41 0 0 0-.29-.71h-1.08q-.65 0-.7-.64l-.22-2.51a.32.31 50.1 0 0-.62-.06q-.13.49-.06 1.02.06.51-.44.41-.24-.04-.4-.25-.14-.2-.15-.76 0-.85-.69-1.39-.48-.37-.35-.96.34-1.59-.86-1.94-.35-.11-.71-.03-.35.07-.51.22-.77.7-1.35-.17-.71-1.07-.64-2.31.01-.29-.23-.45l-.37-.24q-.35-.23-.3-.64.15-1.39-1.13-1.32-.51.03-.81-.39-.5-.73-1.29-.61-.61.1-.69-.52-.25-1.73-1.95-2.21-.49-.13-.28-.59.37-.82-.09-1.49-.53-.78-.88.1-.11.27-.33.36-.43.17-.5-.29l-.12-.8a.62.61 86.5 0 0-.58-.52l-1.99-.06q-.8-.03-.24-.6l.28-.27q.34-.35.09-.77-.66-1.14-1.93-1.37-.5-.09-.8-.51-.76-1.08-1.45-2.24-.5-.81-.99-1.05-.84-.4-1.49.24-.32.31-.67.03-.45-.37.14-1.03.18-.21.44-.28.21-.06.43-.08.48-.05.57-.53.2-1.08-.28-1.99a.21.21 0 0 0-.39.08l-.09 1.09a.46.46 0 0 1-.81.26q-.83-.98-.17-1.99a.5.5 0 0 0-.8-.61l-1.93 2.19q-.1.12-.11.11-.14-.06-.27-.14-.08-.04-.04-.12.34-.64.11-1.28-.07-.22-.66-.81-.58-.58-.45-1.49.07-.49-.41-.6-2.95-.75-3.85-3.49-.19-.59-.55-.09l-.25.35q-.35.47-.76.06l-.24-.23q-.16-.17-.03-.35l.83-1.2q.48-.68-.35-.79l-.78-.1q-.25-.03-.38-.24-.67-1.08-1.98-1.62-.29-.12-.29-.44v-.26q0-.49-.41-.76l-4.49-2.93q-.42-.28-.06-.64l.35-.35q.26-.26-.02-.51L213 226.4q-.4-.36-.93-.4l-4.79-.33" vector-effect="non-scaling-stroke"/><path stroke="#ffb100" d="m120.15 270.74 2.02-.12a.66.66 0 0 1 .7.63q.15 2.67 2.68 3.96.12.06.1-.07-.05-.3-.04-.65a.43.43 0 0 1 .81-.19q1.49 2.87 3.32 5.12.07.08 1.43 2.26 1 1.59 2.95 1.41a.37.36-73.8 0 1 .32.59l-.32.4q-.39.49.23.58l2.6.39q.7.1.46.77l-.16.44q-.18.51.36.54 1.56.09 1.55 1.45 0 .46.4.68l2.29 1.25a1.03 1.03 0 0 1-.49 1.94h-.6q-.12 0-.04.1.16.19.11.42-.07.28.22.24 2.98-.45 4.2 2.21.16.34.52.26l1.33-.3q.77-.17.73.62-.06 1.09.92 1.33a.52.52 0 0 1 .34.75q-.45.89.17 1.76a.46.46 0 0 0 .84-.23l.09-1.27a.22.22 0 0 1 .37-.14q.54.5.26 1.68-.14.61.61.61.69 0 .43.64-.19.47-.52.56a.02.02 0 0 0 .01.03q1.69-.41 2.18 0a.22.21-38.8 0 1-.04.36q-.14.07-.3.14-.46.18-.15.56.22.29.72.24 2.46-.27 2.45 1.89a.33.33 0 0 0 .64.1l.37-1.17a.28.28 0 0 1 .53 0q.79 2.38-.31 4.44-.27.51.28.67.45.13.51-.29a.32.32 0 0 1 .58-.13q.78 1.16 1.91.42a1.49 1.21-.7 0 1 2.11 1.67q-.53.56.17.95a.29.29 0 0 1-.04.53l-.28.1a.5.5 0 0 0-.06.92q.81.4 1.54.2.59-.16.7.45l.35 1.93q.1.55.65.53l2.71-.07a.45.44 21.8 0 1 .33.76l-.54.55q-.44.43.15.64l1.05.37q.79.27.08.71-.42.27-.21.67.16.31.32.01l.16-.31a.56.56 0 0 1 1.04.17q.36 2.02 1.38 2.3.39.1.52.48l.36 1.03q.12.35.48.25l1.45-.4q.61-.16.81.43.31.94-.47 1.66-.08.08-.09.18-.03.19 0 .35a.19.19 0 0 0 .34.08l.44-.61q.1-.14.25-.06.19.09.39.19.21.1.06.28l-.69.79q-.17.2 0 .39l.56.63a.26.26 0 0 1-.13.43l-.51.13q-.14.04-.04.14l.29.29q.24.24.54.09l.72-.37a.27.26.5 0 1 .36.36q-.14.25-.29.37-.78.6.17.83 1.08.26 1.37-.67a.22.21 32.2 0 1 .36-.08l.63.62q.25.26.61.29l3.83.34a.24.24 0 0 1 .22.24v.6q0 .1-.1.09l-2.25-.17q-.69-.05-.64.64.1 1.6 1.59 1.6a1.45.93 13.9 0 1 1.53 1.61l-.35.34q-.22.23.02.44.8.72 1.59.49a.8.64 20.6 0 1 .74 1.24q-.13.05-.27.09-.56.16.01.28 1.18.25 1.38-.78a.35.35 0 0 1 .69.03l.2 2.2q.1 1.06.86.31l.4-.4a.46.46 0 0 1 .78.28l.14 1.51a.29.29 0 0 0 .58.01l.17-1.36a.43.43 0 0 1 .78-.2q.54.77.36 1.84-.08.49.3.81l2.98 2.55a.25.25 0 0 1-.13.44q-1.16.13-1.1 1.49.01.28.27.19l1.73-.61q.65-.22.78.45.34 1.63 1.71 1.3a3.04 2.24 2.2 0 0 1.78-1.21q.25-.43 1.82 1.29" vector-effect="non-scaling-stroke"/><path stroke="#805500" d="M203.22 347.77q-9.84 9.82-19.68 19.71-7.91 7.96-8.76 9.29c-4.87 7.73-1.72 18.51 6.79 22.33q2.8 1.26 8.56 1.26 48.54-.03 97.09 0" vector-effect="non-scaling-stroke"/><path stroke="#ffb100" d="m287.22 400.36-11.58.45a.56.55-9.4 0 0-.51.71l.43 1.48a.19.18 47.4 0 0 .35.02q.07-.19.15-.39a.16.16 0 0 1 .31.04q.12.9-.58 1.15a.35.35 0 0 0 .14.68q1.58-.08 1.94 1.28.07.29.36.38 2.61.8 2.81 3.24a.83.81-15.7 0 1-.47.81l-.59.27q-.27.13.03.14l1.62.04a1.46 1.46 0 0 1 1.05 2.42l-.4.44a.39.39 0 0 0 .18.63l6.34 1.88q.32.1.14.37l-.32.49q-.27.43.06.81.67.77 1.56.31.78-.4.77.48-.04 2.47 1.75 4.1.26.23.58.09l1.53-.67a.29.28 10.4 0 1 .32.46l-.53.53a.69.69 0 0 0 .42 1.18q3.69.35 4.16 4.03.06.43.45.23l.47-.25q.63-.33.73.38.23 1.66 1.94 1.4.6-.09.38.47-.94 2.37 1.24 3.47.41.21.73.53l2 2q.7.7.76-.28l.17-2.69a.23.23 0 0 1 .45-.07q.52 1.28.43 2.75-.03.52-.41.88-.74.67-.15 1.96.12.26.18-.01l.36-1.62q.13-.58.7-.4l.74.23q.55.18.14.58l-.25.26q-.35.34 0 .68.88.86 1.77 1.74c1.4 1.39 1.55 2.98 3.43 4.22a.46.46 0 0 0 .71-.45l-.07-.51a.4.4 0 0 1 .73-.27l2.52 4.07q.2.31.56.37 1.32.2 1.17 1.58a.37.36 71.1 0 0 .62.31l.45-.45a.4.4 0 0 1 .68.24l.16 1.86q.06.66.65.38l.51-.24a.56.55-13.1 0 1 .8.49q.02 1.64 1.12 2.85.39.43.7-.05l.38-.59q.72-1.12.69.22-.03 1.18.92 1.61.76.35.06.81l-.45.29q-.35.22-.02.47l1.94 1.49a.48.48 0 0 1 .04.72l-.25.25q-.6.59.24.49 1.85-.22 2.73 1.71.22.48.63.8 1.94 1.56 3.6 3.43.56.63.56-.21l.01-.84a.37.36 90 0 1 .36-.37h.77q.45 0 .33.44l-.62 2.2q-.16.57.39.8.86.34.99-.5a.25.25 0 0 1 .47-.06l.57 1.25a.49.49 0 0 0 .92-.1l.1-.43a.36.35 49 0 1 .7.05q.09 1.05-.48 1.91-.34.52.16.9 1.29.97-.27 1.63a.41.41 0 0 1-.54-.24l-.12-.34a.13.12-58.4 0 0-.24.06q.04.48.34.98.26.42.75.38l3.18-.25q.51-.04.79.38l2.29 3.44q.06.09.14.01l.3-.3q.06-.06.09.03.8 2.2 3.09 2.59a1.03 1.02-76.1 0 1 .8 1.33q-.48 1.5.87 1.85a.8.79-8.1 0 1 .5.37l1.21 2.13q.28.49.84.62l3.5.8a.33.33 0 0 1 .13.58l-1.97 1.51q-.62.47.16.53.51.04.67-.39.25-.67.74-.14 1.04 1.13 2.72.91a.61.61 0 0 1 .67.76l-.2.75q-.12.45.31.64 1.71.71 2.06 2.51.04.17.17.07.28-.21.54-.43.2-.16.4-.15.32.01.43.29.15.4.57.33 1.92-.29 2.48 1.44.24.72-.21 1.07-.11.09 0 .17.51.37.34-.03a.54.28 33.8 0 1 .85.09q1.07 1.66 2.93 1.02.45-.15.92-.07l1.24.22q.26.05.43-.15l.29-.34q.26-.3.58-.06l.68.53" vector-effect="non-scaling-stroke"/><path stroke="orange" d="M235.77 511.27q-.76-1.3 2.58-1.55.77-.06.19-.58-1.41-1.24-3.33-1.62-.56-.1-.56-.67v-1.3a.25.25 0 0 0-.5-.06q-.06.25-.04.51.11 1.13-.72.36-.55-.5-.06-1.05a.41.41 0 0 0-.3-.68h-1.02q-.46 0-.58-.44-.54-2.06-2.77-2.78-.47-.16-.78.24-.49.63-1.43.26-.3-.12-.29-.45.08-1.9-1.63-2.78-.41-.2-.41-.66v-.75q0-.57-.56-.61-1.06-.06-1.44-1.11-.15-.42-.6-.42h-.51q-.85 0-.47-.77l.49-.95a.53.52-71.9 0 0-.38-.75l-4.1-.67a.39.39 0 0 1-.13-.73l2.32-1.3q.31-.17.05-.43-1.36-1.3-2.74-.36-.36.24-.76.06l-1.89-.85q-.22-.1-.11-.31.09-.18.19-.2.65-.11.47-.59-.68-1.86-2.53-1.66a.08.08 0 0 1-.08-.12l.19-.34a.19.19 0 0 0-.11-.27l-.93-.35q-.45-.17-.05-.42.43-.26.74-.68a.5.3-19.5 0 0-.81-.17q-.62.72-1.38.02-.7-.65-1.4-.77-.34-.06-.17-.37.18-.32.59-.37.89-.12.27-.77c-.97-1.02-2.5-1.03-3.16-1.77q-.32-.37-.27-1.02.05-.75-.41-.16l-.84 1.09a.6.6 0 0 1-.9.05l-.2-.2q-.36-.36.15-.59.23-.11.68.04a1.37.95 59.6 0 0 .18-2.34q-.84-.5-1.4.02-.36.32-.77.08l-1.73-.98q-.52-.29-.21-.81l.55-.91a.29.28-50.6 0 0-.03-.35q-.38-.41-.93-.27-.7.17-.8-.54-.28-1.91-2.22-2.27a.81.81 0 0 1-.65-.65q-.24-1.34-1.22-2.1-1.22-.95-2.34-.28-.3.17-.32-.17-.13-1.67-1.05-3.05-.18-.26-.07-.56.09-.24.09-.53.01-.76-.74-.69l-1.21.12q-.32.03-.51-.22-.21-.3-.43-.61-.31-.47.25-.47h.4a.34.34 0 0 0 .05-.67l-2.17-.29a.44.43 17.8 0 1-.33-.63l.38-.76q.26-.51-.32-.56l-1.71-.16q-.49-.04-.26-.48l.3-.55a.47.47 0 0 0-.11-.57q-1.34-1.15-.52-2.46a.44.44 0 0 0-.5-.66q-.89.26-1.2-.38-.27-.52-.76-.21-.46.29-.87.02-.67-.44-1.5-1.77-.18-.29.07-.53.17-.15.22-.38.06-.3-.21-.63-1.47-1.81-3.87-1.27-.7.16-.55-.55l.3-1.53a.35.35 0 0 0-.5-.38q-.23.11-.49.18-.71.2-.36-.45l.3-.54a.23.23 0 0 0-.11-.32l-4.61-2.15q-.54-.25-.94.19-.28.3-.61.11-1.72-.98-1.02-2.75.22-.56-.38-.61-.81-.07-1.65.1-1.03.21.31.62.59.18.14 1.01-.15.28-.42.12-1.25-.71-.56-1.92a.58.57 25.2 0 0-.3-.82l-.78-.28q-.46-.16-.59-.62-.36-1.21-1.43-.72-.47.21-.48-.3-.01-.27-.03-.51-.03-.22-.2-.34l-1.22-.86q-.46-.33-.5-.9l-.12-1.64q-.05-.68-.72-.54l-.54.12q-.66.14-.66-.54-.01-1.76-1.47-2.06-.54-.11-.52-.65.03-1.05-.9-1.47-1.3-.59-1.45-1.77-.05-.38-.43-.49-1.44-.42-2.18-1.91-.1-.19-.01-.38l.29-.63q.34-.73-.46-.65l-1.17.12a.61.6 82.5 0 1-.66-.51q-.49-2.85-3.47-3.52-.45-.1-.52-.55-.12-.75-.83-.96-.33-.1-.37-.44l-.07-.49q-.08-.6-.66-.46l-1.27.29q-.53.12-.25-.34.06-.1.12-.22a.44.44 0 0 0-.34-.64q-.99-.11-1.25.88a1.15 1.15 0 0 1-2.24-.06q-.05-.24-.04-.42.02-.36.38-.35.6.02.5.34-.2.62.39.39l.53-.21q.41-.16.21-.56l-.6-1.22q-.27-.55.33-.69.77-.17.78-.89.02-.63-.6-.5l-1.47.31q-.7.15-1.09-.45l-.22-.33q-.02-.03-.91-.43-.43-.19-.6-.68-.15-.44.17-.78.8-.87-.04-1.99-.36-.49-2.05-.98a.46.46 0 0 1-.2-.77l.37-.36a.43.43 0 0 0-.38-.73q-1.59.28-2.43-1.52-.19-.39-.19-.82v-1.24q0-.46-.43-.34-.31.09-.44.27-.42.59-.97.14-1.61-1.3-3.59-.02-.29.19-.49-.09c-.68-.95-2.03-1.82-1.85-3.07q.08-.56-.09-1.11-.54-1.78-2.35-1.26a.57.52-39.4 0 1-.38-.02q-.93-.38-1.01-1.24-.07-.62-.69-.66-1.46-.09-1.29-1.37a.76.74 18.4 0 0-.39-.76l-1.94-1.04q-.53-.28-.24-.8l.77-1.4q.4-.71-.42-.71h-.49q-.44 0-.53-.44-.33-1.6-1.8-2.43-.38-.22-.81-.28-.27-.03-.52-.14-.37-.16.04-.17.14-.01.28-.01.41 0 .22-.37-.08-.17-.34-.15-.08 0-.08-.08v-.4a.22.21 81.3 0 0-.28-.21q-.53.15-.52.51.01.19-.18.2-.15.01-.3.01-.46.01-.59-.43-.15-.53-.01-.58.28-.09.2-.38-.3-1.07-1.24-.87-.61.12-.86-.45l-.46-1.03q-.08-.18.11-.22l.6-.16a.28.28 0 0 0-.02-.54l-1.19-.21q-.05 0-.07.04-.07.11-.1.24-.06.27-.33.29l-2.34.17a.54.54 0 0 1-.59-.54v-.71a.29.29 0 0 1 .54-.14l.42.72a.67.67 0 0 0 .68.32q1.49-.22 1.37-1.78a.29.29 0 0 0-.47-.21l-.56.47a.48.48 0 0 1-.78-.34q-.13-1.5-1.53-1.49a.66.66 0 0 1-.67-.66v-1.68a.38.38 0 0 0-.73-.13l-.36.95a.23.23 0 0 1-.39.08l-2.14-2.42q-.11-.12-.12-.27-.01-.13-.01-.26 0-.48-.48-.57-1.43-.26-2.09-1.58-.24-.49-.72-.75-.7-.38-1.07-1.13-.16-.33-.54-.26l-1.58.32a.42.42 0 0 1-.23-.8q1.24-.46.63-1.73-.25-.53-.84-.53h-.85a.33.33 0 0 1-.15-.62l.34-.19a.44.44 0 0 0-.15-.83q-1.26-.16-2.33-.73-.09-.04-.13-.12-.26-.53-.26-1.15.01-.62-.61-.67-.55-.05-.46.44a.24.24 0 0 1-.41.2l-1.05-1.19q-.46-.53.19-.79l.56-.23a.49.48-24.6 0 0 .25-.67l-.29-.58a.46.46 0 0 0-.73-.12l-.23.23q-.82.82-.95-.33l-.11-.91q-.15-1.31-.59-.07-.61 1.77.64 2.93.47.44-.17.41l-1.71-.05q-.2-.01-.11-.19l.2-.39q.23-.46-.06-.88-1.04-1.52-.87-3.48.04-.45.49-.49l.81-.08a.38.38 0 0 0 .24-.64l-2.04-2.19a.27.27 0 0 0-.46.12l-.06.26q-.06.23-.29.28l-1.42.28q-.21.04-.28-.17-.21-.66-.2-1.32.01-.54-.52-.46-1.82.28-2.64-1.67-.18-.44.02-.86.13-.27-.09-.46-.33-.28-.77-.25l-1.87.14q-.55.05-.45-.49.18-1-.57-1.04-.33-.01-.13-.27.11-.14.25-.28a.44.43-48.9 0 0-.04-.66l-.79-.6q-.35-.26-.24-.67.06-.29.32-.5.47-.4-.14-.5-.83-.13-1.48.39-.5.4-.78-.18l-.56-1.22q-.14-.3-.46-.2-.15.06-.28.17-.28.26-.36-.11-.15-.64.35-.93.34-.19.34-.58c0-2.57-3.12-2.81-4.95-3.39q-.44-.14-.39-.61l.18-1.68a.47.47 0 0 0-.82-.37q-.09.1-.19.19a.35.35 0 0 1-.54-.45l.23-.32q.33-.45-.06-.86l-1.3-1.31q-.28-.28-.38-.67-.23-.95-1.22-.96-.86 0-.72.84.04.29-.09.54a.31.31 0 0 1-.59-.14q.01-2.17-2.39-1.55a.82.81-15.3 0 1-.98-.55l-.54-1.79a.21.21 0 0 1 .37-.18q.35.48.75.46.57-.04.28-.54-.69-1.15-1.9-1.23-.38-.03-.56-.36l-.15-.29q-.21-.39.23-.37.26.02.46-.16a.35.35 0 0 0-.3-.61q-1.82.38-1.62-1.35a.55.55 0 0 0-.9-.49q-.85.7-.92-.56a.49.49 0 0 0-.64-.44l-1.27.41q-.64.2-.89-.42-.34-.84-1.28-.66-.71.14-.57-.57l.46-2.31q.12-.61-.51-.6l-3.01.04q-.16.01-.04-.1.11-.11.37-.12a.85.85 0 0 0 .37-1.58l-1.41-.79a.27.26-58.5 0 0-.36.09q-.2.33-.06.56.18.28-.16.3l-1.29.08a.27.27 0 0 1-.23-.43l.79-1.07q.34-.45.05-.93-1.12-1.86-3.22-1.33-.62.15-.37-.43l.63-1.46a.45.45 0 0 0-.45-.63q-1.42.11-1.99-.96-.22-.41-.65-.59-1.63-.69-1.37-2.44.08-.51-.41-.69-1.4-.53-1.65-2.08-.07-.45-.52-.45-.16.01-.28.09-.28.18-.59.07-1.44-.49-1.22-1.68.08-.42-.27-.68l-2.08-1.56q-.3-.22-.68-.25l-2.51-.18a.38.38 0 0 1-.35-.42q.08-.73-.26-1.19-.8-1.08-.84-1.19-.18-.51-.3-1.03-.11-.52-.44-.94-1.19-1.52-1.91-3.28-.15-.37-.42-.08l-.22.24q-.26.3-.65.21-2.77-.59-2.58-3.49.03-.53-.46-.34l-1.31.51a.4.4 0 0 1-.39-.69q1.01-.76.35-1.69-.24-.35-.27-.78-.04-.51-.31-.97a.25.25 0 0 1 .17-.38l.67-.13q.55-.1.05-.36-1.3-.7-2.76-.81a.38.38 0 0 1-.3-.57l.71-1.23a.31.31 0 0 0-.4-.44q-.15.07-.31.17a.37.37 0 0 1-.54-.19q-1.02-2.6-4-2.07-.33.06-.46-.26l-.67-1.59" vector-effect="non-scaling-stroke"/><path stroke="#806300" d="M403.91 272.31v108.16" vector-effect="non-scaling-stroke"/><path stroke="#805c00" d="M403.91 380.47c.13 8.17-1.4 15.05-9.21 18.58q-2.96 1.34-8.61 1.33-49.45-.06-98.87-.02M203.22 347.77l67.67-67.67" vector-effect="non-scaling-stroke"/><path stroke="#ffbf00" d="M470.12 443.89q-2.04 1.13-3.18.77a.14.14 0 0 1-.01-.26q.66-.24.81-.73.19-.7-.48-.43-1.55.62-2.61-.62-.29-.33-.71-.46-.94-.29-.86-1.35.04-.46-.38-.64l-1.25-.54q-.28-.12-.34-.42-.1-.49.25-.27a.2.2 0 0 0 .25-.31q-1.25-1.28-2.86-1.62-.48-.1-.66-.55-.28-.75-1.07-.47a.22.21 74.9 0 0-.14.25q.1.43-.26.76a.29.29 0 0 1-.44-.36l1.03-1.72a.55.54-66.8 0 0-.32-.81l-1.27-.34q-.51-.14-.51-.68l.01-1.56a.54.53-23 0 0-.92-.37l-1.41 1.44q-.6.63-.7-.24-.14-1.3.81-2.2a.5.5 0 0 0-.55-.82l-2.55 1.19q-.45.21-.33-.27.07-.3.39-.55.43-.32-.02-.62l-.36-.22q-.45-.3-.37-.84.15-.89-.69-1.16-.45-.14-.59-.58-.55-1.73-2.35-1.38a.31.3 84.5 0 1-.36-.3v-.25q0-.27.25-.33l1.4-.37a.24.24 0 0 0-.08-.48q-3.32.27-5.96-1.66-.95-.69.04-1.31.36-.22.34-.71a1.25.22-90 0 0-.17-.96l-1.32-1.7q-.39-.51-.91-.13l-1.03.74q-.47.34-.34-.23l.12-.53a.23.23 0 0 0-.2-.28q-.39-.03-.78-.18-.3-.12-.3-.45v-.27q0-.17.16-.23l1.33-.46a.38.38 0 0 0-.14-.74q-1.59.05-1.6-1.44a.4.4 0 0 0-.61-.34l-1.55.93q-.53.31-.43-.3.34-1.92-1.53-2.08-.48-.04-.47-.52.01-.31.42-.33a.19.18 76.9 0 0 .16-.26q-.65-1.42-2.07-1.28a.47.47 0 0 1-.5-.6l.63-2.17a.29.29 0 0 0-.55-.19l-.37.89q-.29.69-.48-.03-.66-2.57-2.89-4.08-.33-.23-.56.1-.19.27-.44.29-.55.04-.22-.4.31-.41.27-.84a.3.3 0 0 0-.52-.19l-.43.43a.21.21 0 0 1-.34-.23q.17-.4.67-.54.69-.19.1-.61-1.48-1.04-3.12-.45a.45.45 0 0 1-.47-.74l.35-.34a.4.4 0 0 0-.03-.59q-.67-.53-1.07.24a.44.44 0 0 1-.8-.02l-.53-1.15a.16.16 0 0 0-.29 0q-.06.12-.12.25-.2.47-.65.26-.16-.07-.25-.17-.28-.29.11-.22.98.18.72-1.04-.08-.35-.42-.45l-.98-.3q-.38-.11-.53-.47-.94-2.25-3.08-3.27-.44-.21-.71-.6-.72-1.04-1.87-1.55a.59.58-62 0 1-.25-.84l.51-.84q.26-.43-.22-.28-2.73.82-3.65-1.85-.37-1.07-1.35-1.15a.12.12 0 0 0-.09.2q.17.16.32.32.62.63-.16.22l-.76-.39q-.44-.22-.25-.68.81-1.91-.67-3.92" vector-effect="non-scaling-stroke"/></g><path fill="#ffdb00" d="M236.38 0h27.35q43.96.65 87.23 7.51 16.44 2.6 37.5 8.58c28.29 8.02 59.58 23.01 77.62 46.58 18.61 24.31 29.54 53.83 35.63 83.59 7.27 35.58 9.28 71.16 10.29 107.37v18.62q-.26.42-.29 1.25l-1.63 8.52a.49.48 14.8 0 1-.64.37l-1.23-.44a.21.21 0 0 1-.11-.31q.51-.84-.35-1.52-1.13-.9-3.97-4.7-.28-.39-.67-.11-.2.14-.35.34-.33.42-.42-.11-.04-.24.05-.51.19-.6-.39-.86-1.1-.49-1.08-1.84a.4.4 0 0 0-.77-.16l-.41.96q-.18.42-.56.17l-.83-.56q-.57-.38.09-.54l1-.23a.39.39 0 0 0 .04-.75q-2.07-.74-3.33-2.59-.23-.35-.65-.4-1.45-.2-2.44-1.46-.43-.56.18-.9.37-.21.39-.61.03-.55-.44-.27l-1.42.82q-.48.28-.67-.24l-.41-1.09q-.12-.34-.43-.52-1.24-.75-1.42-2.17-.07-.54-.61-.63-1.86-.34-1.31-2.33.22-.8-.6-.64-1.55.33-1.44-1.35a.42.42 0 0 0-.58-.41q-1.18.51-2.03-.84-.35-.57.27-.82l.44-.17q.2-.08.01-.2-1.11-.66-2.28-.34a.51.51 0 0 1-.64-.59q.51-2.42-1.59-2.47a.47.47 0 0 1-.26-.85q.39-.28.7-.62a.51.23-23.1 0 0-.79-.02q-.54.59-1.35.35-.39-.12-.53-.5-1.35-3.9-5.19-5.26-.19-.06-.19.13 0 .15.01.29a.27.27 0 0 1-.53.08q-.59-2.26-2.93-2.9-.7-.19-.56-.89l.22-1.14q.07-.33-.26-.38l-1.64-.25a.51.51 0 0 1-.26-.89q.65-.58.85-1.42.14-.59-.4-.31-1.14.6-1.38 2.08-.06.37-.53.35a.45.45 0 0 1-.41-.58l.58-1.97q.15-.52-.3-.81-2.57-1.64-5.61-1.78a.26.26 0 0 1-.05-.52l.7-.18q.52-.13.47-.66l-.08-.71q-.08-.78-.84-.57-.97.27-1.03-.39a.42.42 0 0 0-.64-.32l-.73.44q-.69.42-.68-.39l.05-2.69a.42.42 0 0 0-.77-.23q-.51.81-1.13-.02a1.92.08 52.8 0 1-1.04-1.5q.19-2.13-1.96-1.83-.56.08-.83-.42-.23-.44.26-.69a1.03.84 26.6 0 0-.74-1.66q-2.18-.02-1.92-2.38a.97.96 70.6 0 0-1.64-.79l-.36.37q-.5.5-.65-.19l-.31-1.45q-.13-.61-.74-.51-.92.14-1.52-.74-.18-.28.06-.52l.18-.19a.48.48 0 0 0-.08-.75l-.6-.37q-.32-.2-.23-.57.05-.21.19-.34.34-.32-.08-.51-1.21-.55-2.25 0-.71.37-.63-.42.2-2.19-1.49-3.43-.14-.11-.26.02-.41.38-1.2.26-.44-.07-.68-.45l-1.47-2.36q-.27-.43-.72-.67-2.02-1.07-1.51-3.66.09-.42-.3-.6l-.67-.3a.5.5 0 0 0-.49.86q1.4.96.45 2.59-.43.74-.52-.12-.31-2.67-2.82-3.94-.2-.1-.36.05l-.19.2q-.52.52-.71-.19l-.37-1.41q-.12-.46-.45-.79l-4.27-4.35q-.42-.42-.9-.09l-1.47 1q-.68.47-.6-.35l.09-.93a.58.57 11.8 0 1 .75-.49q.44.14.66-.21.32-.53-.3-.53h-1.8q-.62 0-.62-.62v-2q0-.38-.38-.38h-.76q-.63 0-.75-.62-.46-2.39-2.74-2.5a.66.66 0 0 1-.25-1.25q.14-.07.3-.12.68-.26-.05-.26h-1.02q-.74 0-.6-.72.27-1.39-.94-2.06-.45-.24-.3.24l.12.37a.35.35 0 0 1-.52.4q-1.6-1.01-1.06-2.87.19-.67-.51-.75-2.46-.28-2.62-2.61-.04-.5-.31-.93l-1.98-3.03q-.39-.6-.61.08l-.25.77q-.13.4-.43.1l-.34-.35q-.35-.34-.47-.8l-.53-2.01q-.12-.48-.57-.25l-.81.41q-.44.22-.81-.09-.41-.36-.46-.86-.02-.31-.21-.54l-1.43-1.85q-.04-.05-.09-.03-.12.06-.25.13a.18.18 0 0 1-.25-.13q-.41-2.13-2.55-1.59a.45.45 0 0 1-.57-.44v-.55a.39.39 0 0 0-.72-.21l-.18.29q-.35.53-.81.08l-.63-.64q-.29-.28-.03-.59.84-1.03-.15-1.98-.44-.41-.9-.03-.71.59-1.43.34-.75-.27-.98-1.18-.27-1.03.43-1.69.36-.33.39-.82.01-.15.01-.3-.01-.81-.5-.16l-.32.42q-.31.42-.68.05l-1.56-1.56q-.38-.38-.76 0l-.19.19q-.37.38-.74 0l-.85-.84q-.55-.55.2-.75l.95-.25a.54.54 0 0 0 .34-.78l-.16-.29q-.2-.37-.5-.07l-.33.33q-.52.52-.77-.18l-.12-.33q-.12-.33-.47-.27-.53.1-.14.57.1.12.27.11l.26-.02a.38.38 0 0 1 .27.68q-.82.62-1.46.27-.36-.2-.49-.77-.26-1.13-.28-2.35-.01-.64-.64-.56-.73.1-1.04-.52-.1-.22.05-.41l.35-.45q.37-.46-.22-.53-2.03-.21-1.66-2.49a.38.24 68.2 0 0-.51-.37l-.1.49a.31.31 0 0 1-.42.23q-1.76-.73-2.88-2.18-.39-.51-.96-.81-1.92-.99-2.12-3.21-.09-1.01-.58-.12l-.27.48a.41.41 0 0 1-.77-.25q.27-1.88-1.38-2.1a.51.51 0 0 1-.41-.68l.36-.97q.1-.27-.19-.23l-.87.13q-.67.11-.67-.58 0-1.84-1.91-1.55a.45.45 0 0 1-.27-.84l.76-.39q.43-.22-.01-.41-.96-.44-.86-1.41.01-.16-.15-.11l-1.62.54q-.46.16-.68-.27-.48-.95.63-1.36.93-.34-.05-.46l-3.61-.44q-.52-.06-.77-.51-.52-.91.3-1.55a.97.97 0 0 0-.84-1.7q-2.15.56-1.96-1.53.03-.44-.41-.44h-1.8a.62.62 0 0 1-.26-1.18l.43-.21a.49.48-26.8 0 0 .23-.67l-.2-.37q-.29-.52-.71-.1l-.44.44a.52.52 0 0 1-.85-.56q.64-1.69-1.53-1.41a.65.64 12.2 0 1-.64-.98q.37-.58-.32-.88-.1-.04-.15.05l-.26.49a.41.4 36.3 0 1-.64.09l-.2-.2a.39.39 0 0 1 .11-.62l.49-.22q.14-.07.06-.21-.06-.12-.11-.26a.28.28 0 0 0-.52.01l-.17.47q-.26.72-.75.13l-2.81-3.4q-.21-.26-.43-.02-.48.51-1.2.36-.84-.18-.23-.79l.45-.44q.23-.23-.08-.34l-.81-.27q-.46-.15-.73-.55-1.18-1.67.14-2.98.41-.4-.14-.57-.18-.05-.46.03c3.67-7.31.84-16.28-6.5-19.62q-2.96-1.35-9.57-1.34-27.81.02-55.56-.02l-5.65-.3a.79.78 78.9 0 1-.68-.46q-.38-.85-1.37-.6-.48.12-.52-.37l-.27-2.94a.29.29 0 0 0-.55-.09l-.32.68q-.43.95-1.14.19l-1.3-1.38a.22.21 37.6 0 0-.35.04q-.17.32-.5-.1-.22-.27-.2-.62.1-1.52-1.17-2.27-.46-.28-.43-.81l.06-1.26q.04-.57-.52-.69-2.33-.51-2.55-2.75-.09-.88-.49-.09-.84 1.65-2.65.4-.32-.23-.1-.56.09-.14.08-.3-.04-.41-.43-.31l-1.25.3q-.64.15-.15-.28 1.1-.98 0-2.3-.26-.3-.81-.24-.52.07-.75-.4l-1.51-3.1a.36.35-35.8 0 0-.57-.09l-.2.2q-.14.15-.34.08-2.24-.74-1.11-1.66a.46.46 0 0 0-.31-.82q-.99.05-1.22-.62-.2-.58-.82-.58h-1.46a.36.35 82.5 0 1-.34-.27q-.24-.81.36-.29a.22.22 0 0 0 .36-.23q-.43-1.47-1.46-1.19-.59.15-.61-.46l-.06-1.37q0-.19.17-.11.17.09.34.17a.3.29-10.8 0 0 .33-.48q-1.35-1.19-2.99-.46-.28.12-.43-.15l-.79-1.41q-.21-.36.03-.71.41-.61.18-1.41a.35.35 0 0 0-.66-.03l-.27.75q-.32.89-.7.02-.39-.89.44-1.38a.39.39 0 0 0-.22-.73q-1.72.09-1.58-1.68.04-.46-.4-.35l-.5.13a.16.15-14.1 0 0-.11.18q.14.59-.07 1.08-.3.67-.39-.06l-.36-2.89q-.09-.76-.75-.37l-.44.26q-1.09.65-.33-.29.14-.17.37-.31a.37.37 0 0 0-.17-.69q-2.25-.17-3.99-1.7-.23-.2-.01-.41.09-.09.21-.2a.5.5 0 0 0-.61-.79l-.38.25q-.22.14-.39-.07l-2.23-2.9q-.06-.08.01-.15l.23-.23q.44-.44-.12-.72l-.83-.42q-.41-.21-.44-.67-.09-1.5-1.66-1.25a.5.5 0 0 1-.58-.46q-.17-2.18-1.92-1.71-.48.13-.84-.23l-1.56-1.6q-.4-.4-.47-.96-.17-1.18-1.53-1.58-.35-.1-.61.16l-.18.19a.43.43 0 0 1-.72-.41q.29-1.13-.69-1.42a.38.37 30.6 0 1-.16-.62l.39-.38q.41-.41-.04-.78-.71-.58-1.42.23-.3.34-.27.79.02.34-.27.49a.4.39 83 0 1-.56-.44q.67-2.94-2.3-2.22a.34.34 0 0 1-.33-.55q.82-.92.6-1.98-.19-.92-1.34-1.66-1.93-1.24-4.16-2-.68-.23-.12-.67.61-.48.46-1.28-.13-.67-.71-.31-1.83 1.12-2.67-.76-1.28-2.86-3.71-3.86-.44-.18-.58-.63-.48-1.5-1.77-2.45-.42-.31-.05-.68l.26-.26a.48.48 0 0 0-.47-.81l-2.43.68a.28.28 0 0 1-.21-.51l.44-.23q.5-.27.09-.67l-1.6-1.53a.36.36 0 0 0-.5 0l-.22.22q-.25.25-.49 0-.63-.65-1.5-.27-.66.3-.61-.43l.05-.66a.22.22 0 0 1 .39-.13l.61.7a.71.71 0 0 0 1.21-.67L179 6.26a.13.13 0 0 0-.24-.02q-.08.15-.12.32-.04.19-.13.02l-.28-.57q-.17-.34.21-.36.84-.03 1.11-1.11Q207.79.87 236.38 0Z"/><path fill="#ffd100" d="M179.55 4.54q-.27 1.08-1.11 1.11-.38.02-.21.36l.28.57q.09.17.13-.02.04-.17.12-.32a.13.13 0 0 1 .24.02l.41 1.28a.71.71 0 0 1-1.21.67l-.61-.7a.22.22 0 0 0-.39.13l-.05.66q-.05.73.61.43.87-.38 1.5.27.24.25.49 0l.22-.22a.36.36 0 0 1 .5 0l1.6 1.53q.41.4-.09.67l-.44.23a.28.28 0 0 0 .21.51l2.43-.68a.48.48 0 0 1 .47.81l-.26.26q-.37.37.05.68 1.29.95 1.77 2.45.14.45.58.63 2.43 1 3.71 3.86.84 1.88 2.67.76.58-.36.71.31.15.8-.46 1.28-.56.44.12.67 2.23.76 4.16 2 1.15.74 1.34 1.66.22 1.06-.6 1.98a.34.34 0 0 0 .33.55q2.97-.72 2.3 2.22a.4.39 83 0 0 .56.44q.29-.15.27-.49-.03-.45.27-.79.71-.81 1.42-.23.45.37.04.78l-.39.38a.38.37 30.6 0 0 .16.62q.98.29.69 1.42a.43.43 0 0 0 .72.41l.18-.19q.26-.26.61-.16 1.36.4 1.53 1.58.07.56.47.96l1.56 1.6q.36.36.84.23 1.75-.47 1.92 1.71a.5.5 0 0 0 .58.46q1.57-.25 1.66 1.25.03.46.44.67l.83.42q.56.28.12.72l-.23.23q-.07.07-.01.15l2.23 2.9q.17.21.39.07l.38-.25a.5.5 0 0 1 .61.79q-.12.11-.21.2-.22.21.01.41 1.74 1.53 3.99 1.7a.37.37 0 0 1 .17.69q-.23.14-.37.31-.76.94.33.29l.44-.26q.66-.39.75.37l.36 2.89q.09.73.39.06.21-.49.07-1.08a.16.15-14.1 0 1 .11-.18l.5-.13q.44-.11.4.35-.14 1.77 1.58 1.68a.39.39 0 0 1 .22.73q-.83.49-.44 1.38.38.87.7-.02l.27-.75a.35.35 0 0 1 .66.03q.23.8-.18 1.41-.24.35-.03.71l.79 1.41q.15.27.43.15 1.64-.73 2.99.46a.3.29-10.8 0 1-.33.48q-.17-.08-.34-.17-.17-.08-.17.11l.06 1.37q.02.61.61.46 1.03-.28 1.46 1.19a.22.22 0 0 1-.36.23q-.6-.52-.36.29a.36.35 82.5 0 0 .34.27h1.46q.62 0 .82.58.23.67 1.22.62a.46.46 0 0 1 .31.82q-1.13.92 1.11 1.66.2.07.34-.08l.2-.2a.36.35-35.8 0 1 .57.09l1.51 3.1q.23.47.75.4.55-.06.81.24 1.1 1.32 0 2.3-.49.43.15.28l1.25-.3q.39-.1.43.31.01.16-.08.3-.22.33.1.56 1.81 1.25 2.65-.4.4-.79.49.09.22 2.24 2.55 2.75.56.12.52.69l-.06 1.26q-.03.53.43.81 1.27.75 1.17 2.27-.02.35.2.62.33.42.5.1a.22.21 37.6 0 1 .35-.04l1.3 1.38q.71.76 1.14-.19l.32-.68a.29.29 0 0 1 .55.09l.27 2.94q.04.49.52.37.99-.25 1.37.6a.79.78 78.9 0 0 .68.46l5.65.3q-25.18.04-50.31.02-3.74 0-6.87 1.82l-.06-1.14q-.02-.39-.41-.3l-.41.1q-.17.05-.31-.06-1.84-1.33-3.18.29a.33.33 0 0 1-.59-.2q-.03-1.31-1.02-1.65-.41-.13-.78-.34-1.53-.87-1.15-1.95.09-.26-.17-.36-1.26-.49-.92-1.84a.49.49 0 0 0-.57-.59q-2.38.47-2.42-1.44a.27.27 0 0 1 .44-.21l.48.4q.44.36.82-.07.66-.75-.5-1.47a.75.74 60.5 0 0-.39-.11h-2.02a.74.72-11.7 0 1-.67-.43l-1.54-3.34q-.21-.46-.65-.72-1.18-.71-2.43-1.47-3.11-1.87-2.29-5.22.1-.39-.3-.44-.21-.02-.43-.03-.49-.02-.61.45l-.19.7q-.3 1.12-.5-.02l-.38-2.06a.39.38-19.2 0 0-.57-.27l-1.26.7q-.86.48-.44-.41l.28-.61q.25-.55-.33-.71-2.26-.64-3.53-2.62-.31-.49-.9-.5h-.57a.34.34 0 0 1-.22-.6q1.1-.94.28-2.04a.42.42 0 0 0-.76.3q.16 1.44-1.35 1.06-.29-.08-.05-.25l.43-.33a.52.5-41.9 0 0 .05-.78l-2.92-2.72q-.15-.15.05-.23l.42-.17a.2.2 0 0 1 .28.2q-.01.36.25.55.35.24.65-.06l1.02-1.03q.61-.61-.25-.56-2.83.13-5.14-1.74-.21-.18-.02-.37l.31-.3a.51.51 0 0 0-.33-.87l-.95-.07q-.78-.06-.78.72v.63q0 .11-.11.13-.66.13-.27-.36a.66.65 34.9 0 0-.18-.97q-1.7-1.01-.39-2.22a.5.5 0 0 0-.29-.86l-.8-.07a.68.68 0 0 0-.75.68q-.01.41-.23.65a.19.18 77.9 0 1-.3-.2l.9-2.31a.52.52 0 0 0-.63-.69q-1.94.54-2.75-1-.22-.41-.59-.13l-.68.51q-.68.51-.49-.32.25-1.11 1.39-1.15a.38.38 0 0 0 .04-.75l-2.64-.36q-.48-.07-.79-.43-1.32-1.51-1.88-3.38-.67-2.17-1.37-2.83-1.23-1.14-3.01-1.43-.9-.14-.26-.79.75-.76-.02-1.58a.19.18 22.8 0 0-.32.13q.03 1.21-.93 1.18-.3-.01-.28-.3l.11-1.84a.62.61-88.7 0 0-.61-.65h-2.74q-.63 0-.58-.62.21-2.59-1.49-4.56-.29-.33-.47.07l-.42.94a.37.37 0 0 1-.68-.01q-.82-2.07-2.46-1.64-1.14.31-.35-.57l.71-.79a.45.45 0 0 0-.27-.74q-1.62-.25-1.47-1.5.06-.61-.54-.72l-1.46-.26q-.14-.03-.08-.15.14-.26.23-.51.21-.58-.39-.74l-2.5-.66q-.33-.08-.34-.41l-.12-2.54a.36.36 0 0 0-.58-.26q-1.42 1.16-2.9-.24-.14-.14-.15-.29-.01-.16.08-.29.25-.37.51-.01.52.71 1.29.49a.3.3 0 0 0-.11-.59q-.48.04-.9-.3-.54-.44.15-.58.71-.14 1.34.22.46.26.47-.27 0-.46-.25-.97 22.41-5.79 45.52-8.84Z"/><path fill="#ffc600" d="M134.03 13.38q.25.51.25.97-.01.53-.47.27-.63-.36-1.34-.22-.69.14-.15.58.42.34.9.3a.3.3 0 0 1 .11.59q-.77.22-1.29-.49-.26-.36-.51.01-.09.13-.08.29.01.15.15.29 1.48 1.4 2.9.24a.36.36 0 0 1 .58.26l.12 2.54q.01.33.34.41l2.5.66q.6.16.39.74-.09.25-.23.51-.06.12.08.15l1.46.26q.6.11.54.72-.15 1.25 1.47 1.5a.45.45 0 0 1 .27.74l-.71.79q-.79.88.35.57 1.64-.43 2.46 1.64a.37.37 0 0 0 .68.01l.42-.94q.18-.4.47-.07 1.7 1.97 1.49 4.56-.05.62.58.62h2.74a.62.61-88.7 0 1 .61.65l-.11 1.84q-.02.29.28.3.96.03.93-1.18a.19.18 22.8 0 1 .32-.13q.77.82.02 1.58-.64.65.26.79 1.78.29 3.01 1.43.7.66 1.37 2.83.56 1.87 1.88 3.38.31.36.79.43l2.64.36a.38.38 0 0 1-.04.75q-1.14.04-1.39 1.15-.19.83.49.32l.68-.51q.37-.28.59.13.81 1.54 2.75 1a.52.52 0 0 1 .63.69l-.9 2.31a.19.18 77.9 0 0 .3.2q.22-.24.23-.65a.68.68 0 0 1 .75-.68l.8.07a.5.5 0 0 1 .29.86q-1.31 1.21.39 2.22a.66.65 34.9 0 1 .18.97q-.39.49.27.36.11-.02.11-.13v-.63q0-.78.78-.72l.95.07a.51.51 0 0 1 .33.87l-.31.3q-.19.19.02.37 2.31 1.87 5.14 1.74.86-.05.25.56l-1.02 1.03q-.3.3-.65.06-.26-.19-.25-.55a.2.2 0 0 0-.28-.2l-.42.17q-.2.08-.05.23l2.92 2.72a.52.5-41.9 0 1-.05.78l-.43.33q-.24.17.05.25 1.51.38 1.35-1.06a.42.42 0 0 1 .76-.3q.82 1.1-.28 2.04a.34.34 0 0 0 .22.6h.57q.59.01.9.5 1.27 1.98 3.53 2.62.58.16.33.71l-.28.61q-.42.89.44.41l1.26-.7a.39.38-19.2 0 1 .57.27l.38 2.06q.2 1.14.5.02l.19-.7q.12-.47.61-.45.22.01.43.03.4.05.3.44-.82 3.35 2.29 5.22 1.25.76 2.43 1.47.44.26.65.72l1.54 3.34a.74.72-11.7 0 0 .67.43h2.02a.75.74 60.5 0 1 .39.11q1.16.72.5 1.47-.38.43-.82.07l-.48-.4a.27.27 0 0 0-.44.21q.04 1.91 2.42 1.44a.49.49 0 0 1 .57.59q-.34 1.35.92 1.84.26.1.17.36-.38 1.08 1.15 1.95.37.21.78.34.99.34 1.02 1.65a.33.33 0 0 0 .59.2q1.34-1.62 3.18-.29.14.11.31.06l.41-.1q.39-.09.41.3l.06 1.14q-7.25 4.52-7.25 12.06v47.34l-.18 24.8q-.01.53-.33.95-.77 1.03-.73 2.27.03.66-.44.19-.38-.38-.11-.96.62-1.32-.18-2.09-.48-.46-.68.17-.42 1.42-1.71 2.27a.26.25-20.9 0 1-.39-.17q-.25-1.49.74-2.52a.51.51 0 0 0-.61-.81l-2.56 1.35a.33.33 0 0 1-.34-.56l.43-.32a.4.4 0 0 0-.12-.71q-1.17-.33-.6-1.26.35-.58-.3-.77-1.28-.38-1.48-1.72a.58.57 80 0 0-.68-.48q-.69.14-1.32-.05a.39.39 0 0 1 .22-.75q.52.14.99-.11a.48.48 0 0 0-.22-.9l-3.35-.08q-.5-.01-.74-.45-.48-.84-1.31-.58-.66.2-.71-.49l-.07-.77q-.03-.41.36-.55 1.09-.38.52-2.1a1.73 1.71 87.6 0 0-1.2-1.12q-1.41-.35-1.91.64a.41.41 0 0 1-.77-.15q-.04-.57-.6-.73-.76-.23-.44-.96l.4-.93q.14-.33-.01-.66l-.61-1.34q-.27-.57-.58-.02-.43.79-1.63.72-.59-.04-.51-.63.24-1.75-1.64-1.9-.63-.05-.6-.68.02-.39.41-.39.9.02.31-.67-.89-1.03-1.75-.61-.5.25-.48-.31.03-1.08-.83-1.62-.37-.24-.18-.62.48-.97-.52-1.25-.57-.16-.71-.16l-.39.01q-.44.01-.25-.4.09-.19.32-.11a.31.31 0 0 0 .36-.48l-.5-.7q-.25-.35-.56-.05l-.3.3q-.33.33-.61-.04l-.39-.52q-.24-.32-.14-.71l.25-.92a2 1.77-20.5 0 0-3.44-1.31q-.42.5-.86-.08-.26-.34.09-.59l.37-.27a.41.41 0 0 0-.07-.7q-.68-.31-1.13.33a.34.34 0 0 1-.61-.1q-.61-2.04-2.52-2.68-.46-.16-.12-.5l.29-.29q.63-.64-.24-.85l-.53-.13q-.48-.11-.8-.49-1.09-1.29-2.73-1.73-.37-.1-.43-.48-.15-1.05-1.21-1.28-.51-.11-.62-.63-.07-.32.15-.52.41-.39.46-.95.06-.69-.25-1.26a.33.33 0 0 0-.6.25q.22.73-.52 1.05-.49.21-.96-.03-1.51-.78-1.65-2.5a.43.43 0 0 0-.73-.27l-.38.38q-.42.42-.59-.14c-.21-.73-.01-2.36-.28-2.75q-.17-.25-.45-.31-.67-.13-.67.55v.49a.3.3 0 0 1-.6.05l-.25-1.28q-.11-.6-.65-.89l-2.6-1.39q-.41-.22-.23-.65l.94-2.23q.19-.46-.29-.61l-1.49-.48a.59.59 0 0 0-.72.36l-.39 1.14q-.13.37-.22-.01c-.29-1.37-.52-2.21-1.85-3.27q-.42-.33-.41-.86.03-1.44-1.26-1.22a.45.44 87.1 0 1-.52-.48l.11-1.13q.06-.61-.46-.95l-4.37-2.84q-.41-.27-.18-.7.32-.62-.97-1.06-.37-.13-.76-.07-.48.09-1 .08-.5-.01-.63-.49-1.17-4.61-5.01-5.71-1.81-.51-1.83-1.76 0-.5-.3-.91l-2.5-3.43q-.26-.37-.71-.41l-2.06-.2a.39.39 0 0 1-.17-.72l.43-.26q.78-.48-.09-.77-1.02-.33-2.11-.16a.56.56 0 0 1-.65-.65q.28-1.57-1.33-1.36-.19.03-.28-.14l-.19-.35q-.23-.42.23-.31.75.17 1.1-.22.65-.7 0-1.48a.26.26 0 0 0-.43.04l-.26.49q-.36.66-.69-.02-.63-1.27-1.2-.43a.32.32 0 0 1-.58-.19q.02-.3.46-.41a.42.42 0 0 0-.03-.82l-2.06-.38q-.45-.08-.23-.48l.54-1q.36-.66.79-.05l.27.39a.37.36-58.3 0 0 .66-.16q.16-.94-.16-1.79a.24.24 0 0 0-.39-.08l-.55.56q-.47.47-.71-.16-.43-1.17-.82-.58-.26.4-.7.22-2.49-.99-2.62-3.43-.03-.63-.59-.91-.97-.48-3.56-1.37-1.89-.66-3.01-3.4-.15-.38-.51-.18-.14.08-.27.13-.41.15-.23-.25l.61-1.33q.24-.53-.33-.66-.65-.15-1 .36a.59.59 0 0 1-.99-.04l-1.66-2.86q-.43-.74.43-.74h.48q.64 0 .6-.64-.03-.52-.5-.83-.26-.17-.89-.15-1.07.03-1.67-.84-.35-.5-.71-.01-.11.15-.26.27a.3.3 0 0 1-.47-.35l.54-1.17q.23-.51-.33-.48-1.6.08-1.88 1.46-.11.49-.46.14l-.41-.42q-.35-.35-.42-.83-.15-.91-.94-1.4-.3-.18-.11-.48l.21-.31q.3-.46-.22-.66-3.97-1.46-6.49-4.93-.29-.41-.79-.37-1.64.14-2.23-1.31-.18-.45-.59-.74-3.07-2.14-4.46-5.51-.28-.67-1.01-.67h-1q-.26 0-.1-.21.15-.19.53-.11a.62.61 24.3 0 0 .6-.22l.95-1.2a.73.73 0 0 0-.92-1.09l-1.3.7q-.35.18-.52-.17l-.43-.85q-.28-.55-.89-.67l-1.32-.25q-.37-.07-.02-.21l.57-.23q.34-.13.15-.44l-.18-.28q-.27-.41-.61-.06-.24.24-.55.38-.43.2-.65-.22-.1-.17-.21-.43C85 29.2 109.51 19.36 134.03 13.38Z"/><path fill="#ffb800" d="M64.89 44.08q.11.26.21.43.22.42.65.22.31-.14.55-.38.34-.35.61.06l.18.28q.19.31-.15.44l-.57.23q-.35.14.02.21l1.32.25q.61.12.89.67l.43.85q.17.35.52.17l1.3-.7a.73.73 0 0 1 .92 1.09l-.95 1.2a.62.61 24.3 0 1-.6.22q-.38-.08-.53.11-.16.21.1.21h1q.73 0 1.01.67 1.39 3.37 4.46 5.51.41.29.59.74.59 1.45 2.23 1.31.5-.04.79.37 2.52 3.47 6.49 4.93.52.2.22.66l-.21.31q-.19.3.11.48.79.49.94 1.4.07.48.42.83l.41.42q.35.35.46-.14.28-1.38 1.88-1.46.56-.03.33.48l-.54 1.17a.3.3 0 0 0 .47.35q.15-.12.26-.27.36-.49.71.01.6.87 1.67.84.63-.02.89.15.47.31.5.83.04.64-.6.64h-.48q-.86 0-.43.74l1.66 2.86a.59.59 0 0 0 .99.04q.35-.51 1-.36.57.13.33.66l-.61 1.33q-.18.4.23.25.13-.05.27-.13.36-.2.51.18 1.12 2.74 3.01 3.4 2.59.89 3.56 1.37.56.28.59.91.13 2.44 2.62 3.43.44.18.7-.22.39-.59.82.58.24.63.71.16l.55-.56a.24.24 0 0 1 .39.08q.32.85.16 1.79a.37.36-58.3 0 1-.66.16l-.27-.39q-.43-.61-.79.05l-.54 1q-.22.4.23.48l2.06.38a.42.42 0 0 1 .03.82q-.44.11-.46.41a.32.32 0 0 0 .58.19q.57-.84 1.2.43.33.68.69.02l.26-.49a.26.26 0 0 1 .43-.04q.65.78 0 1.48-.35.39-1.1.22-.46-.11-.23.31l.19.35q.09.17.28.14 1.61-.21 1.33 1.36a.56.56 0 0 0 .65.65q1.09-.17 2.11.16.87.29.09.77l-.43.26a.39.39 0 0 0 .17.72l2.06.2q.45.04.71.41l2.5 3.43q.3.41.3.91.02 1.25 1.83 1.76 3.84 1.1 5.01 5.71.13.48.63.49.52.01 1-.08.39-.06.76.07 1.29.44.97 1.06-.23.43.18.7l4.37 2.84q.52.34.46.95l-.11 1.13a.45.44 87.1 0 0 .52.48q1.29-.22 1.26 1.22-.01.53.41.86c1.33 1.06 1.56 1.9 1.85 3.27q.09.38.22.01l.39-1.14a.59.59 0 0 1 .72-.36l1.49.48q.48.15.29.61l-.94 2.23q-.18.43.23.65l2.6 1.39q.54.29.65.89l.25 1.28a.3.3 0 0 0 .6-.05v-.49q0-.68.67-.55.28.06.45.31c.27.39.07 2.02.28 2.75q.17.56.59.14l.38-.38a.43.43 0 0 1 .73.27q.14 1.72 1.65 2.5.47.24.96.03.74-.32.52-1.05a.33.33 0 0 1 .6-.25q.31.57.25 1.26-.05.56-.46.95-.22.2-.15.52.11.52.62.63 1.06.23 1.21 1.28.06.38.43.48 1.64.44 2.73 1.73.32.38.8.49l.53.13q.87.21.24.85l-.29.29q-.34.34.12.5 1.91.64 2.52 2.68a.34.34 0 0 0 .61.1q.45-.64 1.13-.33a.41.41 0 0 1 .07.7l-.37.27q-.35.25-.09.59.44.58.86.08a2 1.77-20.5 0 1 3.44 1.31l-.25.92q-.1.39.14.71l.39.52q.28.37.61.04l.3-.3q.31-.3.56.05l.5.7a.31.31 0 0 1-.36.48q-.23-.08-.32.11-.19.41.25.4l.39-.01q.14 0 .71.16 1 .28.52 1.25-.19.38.18.62.86.54.83 1.62-.02.56.48.31.86-.42 1.75.61.59.69-.31.67-.39 0-.41.39-.03.63.6.68 1.88.15 1.64 1.9-.08.59.51.63 1.2.07 1.63-.72.31-.55.58.02l.61 1.34q.15.33.01.66l-.4.93q-.32.73.44.96.56.16.6.73a.41.41 0 0 0 .77.15q.5-.99 1.91-.64a1.73 1.71 87.6 0 1 1.2 1.12q.57 1.72-.52 2.1-.39.14-.36.55l.07.77q.05.69.71.49.83-.26 1.31.58.24.44.74.45l3.35.08a.48.48 0 0 1 .22.9q-.47.25-.99.11a.39.39 0 0 0-.22.75q.63.19 1.32.05a.58.57 80 0 1 .68.48q.2 1.34 1.48 1.72.65.19.3.77-.57.93.6 1.26a.4.4 0 0 1 .12.71l-.43.32a.33.33 0 0 0 .34.56l2.56-1.35a.51.51 0 0 1 .61.81q-.99 1.03-.74 2.52a.26.25-20.9 0 0 .39.17q1.29-.85 1.71-2.27.2-.63.68-.17.8.77.18 2.09-.27.58.11.96.47.47.44-.19-.04-1.24.73-2.27.32-.42.33-.95l.18-24.8.01 47.32a.46.46 0 0 1-.46.46q-47.43.02-94.43.01-6.37-.01-11.2 5.25l-3.81-5.89a.5.5 0 0 0-.9.14q-.18.63-.82.51a.79.78 73.8 0 1-.41-.23q-1.65-1.73-.6-2.03 1.73-.51-.2-.56-1.33-.04-1.18-1.34.07-.65-.58-.69l-2.85-.2q-.52-.03-.56-.55l-.32-4.22a.14.14 0 0 0-.25-.08l-.17.21q-.41.51-.98.19l-5.87-3.29q-.41-.23-.35-.7l.24-2.03a.6.59 86.6 0 0-.73-.65q-1.23.28-1.53-.8a.58.58 0 0 0-.15-.26l-2.52-2.52a.09.08-60 0 0-.14.04q-.12.41-.37.5-.61.21-.61-.44l-.01-.93q0-.94-.83-.49l-.57.32a.38.38 0 0 1-.54-.22q-.41-1.21.4-2.33.08-.11.04-.32a.12.12 0 0 0-.23-.03l-.27.5q-.5.95-1.01 0l-.37-.68q-.3-.56-.67-.05l-.48.68a.38.38 0 0 1-.63-.42q1.08-1.7.71-3.54a.29.29 0 0 0-.49-.15l-.34.35q-.4.4-.57-.14-.43-1.36-1.39-2.26-.54-.49-1.17-.26a.12.11 40.9 0 0 .02.22l.57.13q.61.14.14.55l-.53.46q-.72.64-1.29-.14-1.1-1.51-.09-2a.13.13 0 0 0-.03-.24q-.5-.12-.37.17.2.45-.29.4l-1.47-.14a.29.29 0 0 1-.18-.5l.34-.34q.42-.42.03-.87-.9-1.02-2.04-.67-.48.14-.39-.36.04-.25.25-.42.47-.4-.14-.32l-1.14.15q-.22.03-.23-.19l-.1-2.08a.54.41-54.5 0 0-.91.29v.68q0 .51-.46.27-.32-.18-.37-.57-.04-.34.28-.78.4-.56.61-1.25.05-.17-.1-.24-.69-.34-1.21-1.08-.27-.38-.73-.41-1.24-.07-1.03-1.36.09-.58-.47-.44-1.26.31-2.11-.43-.47-.41-.68-1.62-.41-2.5-2.5-2.56a3.71 3.39-88.9 0 1-3.27-3.73q.01-.76-.79-1.1-.33-.14-.7-.11l-.85.09a.46.46 0 0 1-.26-.86q.86-.44.47-1.13-.15-.27-.45-.23-1.19.16-1.6 1.16a.19.19 0 0 1-.35.01q-.07-.15-.14-.29-.11-.23.1-.38 1.19-.87.27-2.16-.72-1.03-1.56-.69-.4.16-.81.03-1.17-.36-1.03-1.59a.6.6 0 0 0-.36-.63q-2.61-1.09-3.01-3.84-.05-.31-.35-.22-1.45.47-.43.86a.39.39 0 0 1-.06.74l-1.15.24a.95.95 0 0 1-.68-1.75q.91-.55 1.29-1.5a.69.67-19.9 0 0-1.24-.56q-.06.11-.09.19a.47.42 30.6 0 1-.72.14q-.59-.49-.7-1.29-.07-.43-.32-.79-.3-.43-.43-.11-.18.41-.58.24l-1.59-.68q-.51-.21-.63-.75-.59-2.6-3.04-3.18-.5-.12-.39-.62l.1-.49q.14-.63-.47-.43l-.59.19q-.34.11-.53-.18-.55-.81-1.4-1.34c6.77-22.75 16.57-46.21 31.6-64.1q6.7-7.97 17.53-16.79Z"/><path d="M265.31 87.98q27.75.04 55.56.02 6.61-.01 9.57 1.34c7.34 3.34 10.17 12.31 6.5 19.62-3.85 6.55-8.55 7.56-16.32 7.55q-45.41-.04-90.82 0-.51 0-.51.51l.02 11.04q-.1 40.79-.06 81.81.01 4.77-1.26 7.53c-3.86 8.41-11.84 8.52-20.71 8.27l-86.59-.05a.55.55 0 0 0-.55.55l.01 44.57q-.05 23.16-.02 46.39.01 6.1-.97 8.62c-4.53 11.53-20.87 12.01-26.14.98q-1.37-2.87-1.38-8.7-.08-53.58 0-107.16.01-4.89 3.16-8.61 4.83-5.26 11.2-5.25 47 .01 94.43-.01a.46.46 0 0 0 .46-.46l-.01-47.32v-47.34q0-7.54 7.25-12.06Q211.26 88 215 88q25.13.02 50.31-.02Z"/><path fill="#ffd100" d="M511.71 273.5q-.31 44.82-9.24 88.54-.57 1.29-1.16-1.06-.11-.45-.2 0-.37 1.88-1.06 3.65-.28.71-.79.92-.65.27-1.35-.01-.54-.21.01-.39 1.13-.36.71-1.46a.89.88-86.7 0 0-.44-.5q-1.4-.7-2.3.1-.5.44-.76-.17-.57-1.29-2.15-1.2-.53.02-.73-.46-.61-1.47-.26-3.05a.35.34 82.1 0 0-.5-.38q-.43.23-.37.48.58 2.35-.99.12-.36-.5-.27-1.13.11-.73-.77-.1-.95.69-1.42-.51-.18-.45.25-.69l.51-.28q.53-.29.12-.73l-1.93-2.06q-.26-.28-.43.06l-.2.43a.42.42 0 0 1-.64.16l-.36-.27a.17.17 0 0 1 0-.27l.56-.42a.38.38 0 0 0-.18-.68l-.86-.11a.65.63 75.6 0 1-.47-.29q-1.42-2.1-3.74-3.02-.51-.2-.33-.71.5-1.44-.52-2.3-.38-.31-.58-.75-.31-.68-.8-1.3-.34-.42-.24-.95.29-1.54-1.05-1.68-.51-.05-.66.44-.05.16-.18.34-.26.35-.56.03-1.17-1.24-2.96-.93a.3.29-72.9 0 1-.26-.5l.47-.5a.54.54 0 0 0-.01-.76l-.93-.93a.43.43 0 0 0-.67.09l-.18.32a.4.4 0 0 1-.72-.34q.11-.32.44-.4a.35.35 0 0 0 .05-.65q-1.25-.56-1.76.27a.4.4 0 0 1-.73-.33q.3-.99-.73-1.22a.47.47 0 0 1-.17-.84l.61-.43q.13-.1-.02-.16l-.55-.22q-.05-.03-.06.03-.02.46-.71.55a.45.44 82.3 0 1-.5-.39l-.35-2.97q-.02-.14-.15-.16-.28-.06-.33.47-.02.27-.02.55.01.6-.27 1.14-.53 1.04-.66-.11-.15-1.33-1.39-2.16-.41-.27-.86-.06-.79.38-1.47-.59-.11-.16 0-.31l.2-.3q.31-.46-.06-.88-.7-.8-1.57-1.33-.38-.24-.05-.54l.2-.19a.58.58 0 0 1 .85.05l1.14 1.39q.33.39.61-.04l.37-.56q.16-.26-.1-.41l-5.6-3.26q-.42-.25-.58-.71-.21-.63-.95-.36a.67.66 76.1 0 1-.88-.54l-.29-2.05a.47.47 0 0 0-.43-.41l-2.76-.21q-.96-.07-.28-.75l.34-.35q.24-.23.13-.54-.08-.25-.3-.19-.48.15-.58-.34-.18-.87.51-.89a.27.27 0 0 0 .07-.53q-.86-.26-1.39.23a.72.72 0 0 1-1.21-.53l.01-1.42a.53.53 0 0 0-.52-.54l-1.92-.03a.32.32 0 0 1-.3-.41l.32-1.16a.43.41 24.6 0 0-.18-.46q-.73-.46-.39-1.23a.45.45 0 0 0-.38-.64l-.96-.06a.49.47 11.4 0 0-.48.31l-.44 1.15a.25.25 0 0 1-.48-.12q.26-1.76-.95-2.82a1.04.06 73.8 0 1-.31-.88q-.24-.8.82-1 .57-.11.05-.38l-.67-.35q-.83-.44-1.57.14-1.05.82-2.46.74-.55-.03-.43-.57l.54-2.61q.1-.47-.38-.52-2.34-.22-3.11-2.63a.29.29 0 0 0-.56.04l-.09.61a.77.77 0 0 1-.76.65h-.47a.35.35 0 0 1-.29-.55l1.47-2.21q.19-.28-.07-.51l-1.1-.94a.37.37 0 0 0-.58.13l-.4.92a.47.47 0 0 1-.9-.16l-.07-1.62q-.02-.53-.52-.7-2.73-.93-3.66-3.7-.11-.33-.44-.46-.34-.13-.39-.49a.39.38-36.1 0 0-.73-.11q-.09.18-.22.38-.38.55-.78.02l-.3-.41q-.16-.21-.41-.28l-1.09-.3q-.43-.12-.25-.53l.32-.74a.52.51 29.1 0 0-.18-.62q-1.37-.99-1.53-2.66-.03-.34-.38-.37-1.19-.1-1.56.71-.08.19-.28.18-.18-.01-.27-.18-.16-.31.13-.49.88-.53.17-1.56-.25-.35-.66-.43-2.26-.46-3.32-2.52-.18-.35-.57-.33l-1.34.04q-.42.01-.55-.39l-.46-1.43q-.16-.51-.7-.55-3.72-.21-3.92-4.06-.03-.58-.43-.17l-.36.36q-.26.26-.29-.11l-.02-.3a.56.55-22.3 0 1 .21-.49q1.25-1.01.78-2.72-.13-.48-.54-.2l-1.42.99q-.03-43.93-.15-87.81c-.03-11.18-10.8-18.65-20.91-14.59q-3.01 1.21-6.7 4.91-23.25 23.29-46.52 46.53-.59-1.01-.04-1.74.05-.07.14-.03l.31.17a.29.28 11.1 0 0 .42-.28l-.12-1.07a.55.55 0 0 0-.96-.29l-.58.67a.38.38 0 0 1-.67-.19q-.03-.26-.25-.48-.58-.57-.84.21-.12.36-.42.46-.41.13-.51-.29-.06-.28.03-.53.18-.49.09-.99-.24-1.4-1.7-1.04-.65.15-.65.82v.72a.3.3 0 0 1-.58.09q-.65-2 .08-3.91.11-.3-.16-.48-.88-.57-1.25.24-.27.57-.57.02-1.07-2.01-2.98-3.54-.34-.27-.75-.4-2.81-.89-2.63-3.96a.49.48 64.2 0 0-.88-.31q-.2.29-.42.51a.39.33-8.9 0 1-.62-.37q.18-.23.37-.24.99-.09.27-.82-1.95-1.98-2.82-4.63-.17-.51-.63-.22-1.13.7-1.88-.5-.05-.08-.32-1.02-.24-.84-1.27-.92-.46-.03-.74-.4l-2.61-3.38q-.27-.35-.46.04l-.19.36a.21.21 0 0 1-.39-.09q-.07-3.27-2.97-4.35-.26-.09-.48.08l-.47.39a.25.15-70.8 0 1-.08-.4q1.66-1.47.27-2.95-.59-.63-.59.23v.69q0 .62-.61.62h-.74a.59.57 86.6 0 1-.57-.52l-.2-1.79q-.06-.53-.59-.57l-3.76-.31q-.34-.03-.37-.38l-.24-3.75a.46.46 0 0 0-.78-.3l-.2.21q-.33.32-.69.04l-2.68-2.1q-.19-.14-.02-.31l.2-.21q.26-.25.01-.51l-3.34-3.45q-.36-.37-.41-.87-.07-.75-.77-1.06-.35-.15-.75.01-.35.13-.7.35-.35.21-.65-.06l-1.88-1.71q-.43-.4-.23-.95l.34-.92q.16-.42-.27-.55-1.35-.41-2.73.46-.21.13-.42.12-.29-.02-.22-.3l.26-.99a.29.29 0 0 0-.11-.32l-.61-.44q-.25-.19-.02-.4.63-.57.53-1.25-.05-.36-.38-.5l-3.82-1.69q-.92-.4.03-.74l.75-.28q.99-.35-.04-.56-3.83-.78-4.41-4.87a.54.54 0 0 0-1.04-.1l-.3.91q-.07.18-.23.07l-.72-.52q-.35-.25 0-.5.31-.22.53-.23a.95.92 52.6 0 0 .21-1.84l-.98-.31q-.51-.16-.38-.69.2-.8-.21-1.5-.41-.68-.77.03-.46.93-.22 2 .04.18-.15.18-.15 0-.28-.01-.17-.01-.22-.16-.98-3.04-3.89-4.53-.23-.12-.37.1-.12.18-.32.26-.34.13-.16-.19l.79-1.42q.28-.5-.14-.89l-1.37-1.25q-.34-.31-.76-.1l-1.4.71q-.43.23-.67-.2l-1.48-2.64q-.19-.34.06-.63.12-.15.37-.25.17-.07 0-.14l-4.47-1.84a.74.73 19.9 0 1-.43-.9q.61-1.95-1.22-1.95-.53-.01-.81-.45-.9-1.41-2.52-1.58a.47.46-78.5 0 1-.39-.6q.33-1.08-.53-1.34-.49-.15-.32-.62l.2-.55q.19-.54-.36-.66l-1.19-.26q-.44-.09-.65-.49l-1.95-3.71a.96.96 0 0 0-1.08-.49q-.98.24-1.45-.59-.13-.24-.02-.49.32-.7.1-1.5-.18-.69-.7-.2-.65.61-1.1-.04-.2-.29.14-.37l.53-.13a.3.3 0 0 0 .08-.55l-1.06-.62a.19.18-74.5 0 0-.28.16v.48q0 .1-.05.02-.4-.56-1.07-.41-.44.1-.46-.34-.05-.86.75-1.2a.54.54 0 0 0 0-1q-.84-.34-.47-1.54.3-.97-.64-.6-.87.34-1.48 1.05-.22.25-.23.54-.01.38.19.59.3.32.37-.11.04-.3.43-.02a.29.29 0 0 1 .03.44l-.52.52q-.4.41-.46.98l-.54 5.89-.02-11.04q0-.51.51-.51 45.41-.04 90.82 0c7.77.01 12.47-1 16.32-7.55q.28-.08.46-.03.55.17.14.57-1.32 1.31-.14 2.98.27.4.73.55l.81.27q.31.11.08.34l-.45.44q-.61.61.23.79.72.15 1.2-.36.22-.24.43.02l2.81 3.4q.49.59.75-.13l.17-.47a.28.28 0 0 1 .52-.01q.05.14.11.26.08.14-.06.21l-.49.22a.39.39 0 0 0-.11.62l.2.2a.41.4 36.3 0 0 .64-.09l.26-.49q.05-.09.15-.05.69.3.32.88a.65.64 12.2 0 0 .64.98q2.17-.28 1.53 1.41a.52.52 0 0 0 .85.56l.44-.44q.42-.42.71.1l.2.37a.49.48-26.8 0 1-.23.67l-.43.21a.62.62 0 0 0 .26 1.18h1.8q.44 0 .41.44-.19 2.09 1.96 1.53a.97.97 0 0 1 .84 1.7q-.82.64-.3 1.55.25.45.77.51l3.61.44q.98.12.05.46-1.11.41-.63 1.36.22.43.68.27l1.62-.54q.16-.05.15.11-.1.97.86 1.41.44.19.01.41l-.76.39a.45.45 0 0 0 .27.84q1.91-.29 1.91 1.55 0 .69.67.58l.87-.13q.29-.04.19.23l-.36.97a.51.51 0 0 0 .41.68q1.65.22 1.38 2.1a.41.41 0 0 0 .77.25l.27-.48q.49-.89.58.12.2 2.22 2.12 3.21.57.3.96.81 1.12 1.45 2.88 2.18a.31.31 0 0 0 .42-.23l.1-.49a.38.24 68.2 0 1 .51.37q-.37 2.28 1.66 2.49.59.07.22.53l-.35.45q-.15.19-.05.41.31.62 1.04.52.63-.08.64.56.02 1.22.28 2.35.13.57.49.77.64.35 1.46-.27a.38.38 0 0 0-.27-.68l-.26.02q-.17.01-.27-.11-.39-.47.14-.57.35-.06.47.27l.12.33q.25.7.77.18l.33-.33q.3-.3.5.07l.16.29a.54.54 0 0 1-.34.78l-.95.25q-.75.2-.2.75l.85.84q.37.38.74 0l.19-.19q.38-.38.76 0l1.56 1.56q.37.37.68-.05l.32-.42q.49-.65.5.16 0 .15-.01.3-.03.49-.39.82-.7.66-.43 1.69.23.91.98 1.18.72.25 1.43-.34.46-.38.9.03.99.95.15 1.98-.26.31.03.59l.63.64q.46.45.81-.08l.18-.29a.39.39 0 0 1 .72.21v.55a.45.45 0 0 0 .57.44q2.14-.54 2.55 1.59a.18.18 0 0 0 .25.13q.13-.07.25-.13.05-.02.09.03l1.43 1.85q.19.23.21.54.05.5.46.86.37.31.81.09l.81-.41q.45-.23.57.25l.53 2.01q.12.46.47.8l.34.35q.3.3.43-.1l.25-.77q.22-.68.61-.08l1.98 3.03q.27.43.31.93.16 2.33 2.62 2.61.7.08.51.75-.54 1.86 1.06 2.87a.35.35 0 0 0 .52-.4l-.12-.37q-.15-.48.3-.24 1.21.67.94 2.06-.14.72.6.72h1.02q.73 0 .05.26-.16.05-.3.12a.66.66 0 0 0 .25 1.25q2.28.11 2.74 2.5.12.62.75.62h.76q.38 0 .38.38v2q0 .62.62.62h1.8q.62 0 .3.53-.22.35-.66.21a.58.57 11.8 0 0-.75.49l-.09.93q-.08.82.6.35l1.47-1q.48-.33.9.09l4.27 4.35q.33.33.45.79l.37 1.41q.19.71.71.19l.19-.2q.16-.15.36-.05 2.51 1.27 2.82 3.94.09.86.52.12.95-1.63-.45-2.59a.5.5 0 0 1 .49-.86l.67.3q.39.18.3.6-.51 2.59 1.51 3.66.45.24.72.67l1.47 2.36q.24.38.68.45.79.12 1.2-.26.12-.13.26-.02 1.69 1.24 1.49 3.43-.08.79.63.42 1.04-.55 2.25 0 .42.19.08.51-.14.13-.19.34-.09.37.23.57l.6.37a.48.48 0 0 1 .08.75l-.18.19q-.24.24-.06.52.6.88 1.52.74.61-.1.74.51l.31 1.45q.15.69.65.19l.36-.37a.97.96 70.6 0 1 1.64.79q-.26 2.36 1.92 2.38a1.03.84 26.6 0 1 .74 1.66q-.49.25-.26.69.27.5.83.42 2.15-.3 1.96 1.83a1.92.08 52.8 0 0 1.04 1.5q.62.83 1.13.02a.42.42 0 0 1 .77.23l-.05 2.69q-.01.81.68.39l.73-.44a.42.42 0 0 1 .64.32q.06.66 1.03.39.76-.21.84.57l.08.71q.05.53-.47.66l-.7.18a.26.26 0 0 0 .05.52q3.04.14 5.61 1.78.45.29.3.81l-.58 1.97a.45.45 0 0 0 .41.58q.47.02.53-.35.24-1.48 1.38-2.08.54-.28.4.31-.2.84-.85 1.42a.51.51 0 0 0 .26.89l1.64.25q.33.05.26.38l-.22 1.14q-.14.7.56.89 2.34.64 2.93 2.9a.27.27 0 0 0 .53-.08q-.01-.14-.01-.29 0-.19.19-.13 3.84 1.36 5.19 5.26.14.38.53.5.81.24 1.35-.35a.51.23-23.1 0 1 .79.02q-.31.34-.7.62a.47.47 0 0 0 .26.85q2.1.05 1.59 2.47a.51.51 0 0 0 .64.59q1.17-.32 2.28.34.19.12-.01.2l-.44.17q-.62.25-.27.82.85 1.35 2.03.84a.42.42 0 0 1 .58.41q-.11 1.68 1.44 1.35.82-.16.6.64-.55 1.99 1.31 2.33.54.09.61.63.18 1.42 1.42 2.17.31.18.43.52l.41 1.09q.19.52.67.24l1.42-.82q.47-.28.44.27-.02.4-.39.61-.61.34-.18.9.99 1.26 2.44 1.46.42.05.65.4 1.26 1.85 3.33 2.59a.39.39 0 0 1-.04.75l-1 .23q-.66.16-.09.54l.83.56q.38.25.56-.17l.41-.96a.4.4 0 0 1 .77.16q-.02 1.35 1.08 1.84.58.26.39.86-.09.27-.05.51.09.53.42.11.15-.2.35-.34.39-.28.67.11 2.84 3.8 3.97 4.7.86.68.35 1.52a.21.21 0 0 0 .11.31l1.23.44a.49.48 14.8 0 0 .64-.37l1.63-8.52Z"/><path fill="#ffc600" d="m329.63 221.35-58.74 58.75q.34-1.03-.79-1.58-.45-.22-.79.14-1.57 1.67-3.77 2.11-.64.12-.44-.49.35-1.12-.5-1.38a.49.49 0 0 1-.25-.75l.66-.93q.3-.42-.04-.8l-.96-1.07q-.31-.35.47-.47.15-.03.27-.13a.36.36 0 0 0-.22-.64q-2.35-.06-2.76 2.18-.09.51-.61.6-.31.05-.6-.08-.45-.22-.1-.58l.64-.64a.41.41 0 0 0-.29-.71h-1.08q-.65 0-.7-.64l-.22-2.51a.32.31 50.1 0 0-.62-.06q-.13.49-.06 1.02.06.51-.44.41-.24-.04-.4-.25-.14-.2-.15-.76 0-.85-.69-1.39-.48-.37-.35-.96.34-1.59-.86-1.94-.35-.11-.71-.03-.35.07-.51.22-.77.7-1.35-.17-.71-1.07-.64-2.31.01-.29-.23-.45l-.37-.24q-.35-.23-.3-.64.15-1.39-1.13-1.32-.51.03-.81-.39-.5-.73-1.29-.61-.61.1-.69-.52-.25-1.73-1.95-2.21-.49-.13-.28-.59.37-.82-.09-1.49-.53-.78-.88.1-.11.27-.33.36-.43.17-.5-.29l-.12-.8a.62.61 86.5 0 0-.58-.52l-1.99-.06q-.8-.03-.24-.6l.28-.27q.34-.35.09-.77-.66-1.14-1.93-1.37-.5-.09-.8-.51-.76-1.08-1.45-2.24-.5-.81-.99-1.05-.84-.4-1.49.24-.32.31-.67.03-.45-.37.14-1.03.18-.21.44-.28.21-.06.43-.08.48-.05.57-.53.2-1.08-.28-1.99a.21.21 0 0 0-.39.08l-.09 1.09a.46.46 0 0 1-.81.26q-.83-.98-.17-1.99a.5.5 0 0 0-.8-.61l-1.93 2.19q-.1.12-.11.11-.14-.06-.27-.14-.08-.04-.04-.12.34-.64.11-1.28-.07-.22-.66-.81-.58-.58-.45-1.49.07-.49-.41-.6-2.95-.75-3.85-3.49-.19-.59-.55-.09l-.25.35q-.35.47-.76.06l-.24-.23q-.16-.17-.03-.35l.83-1.2q.48-.68-.35-.79l-.78-.1q-.25-.03-.38-.24-.67-1.08-1.98-1.62-.29-.12-.29-.44v-.26q0-.49-.41-.76l-4.49-2.93q-.42-.28-.06-.64l.35-.35q.26-.26-.02-.51L213 226.4q-.4-.36-.93-.4l-4.79-.33c8.87.25 16.85.14 20.71-8.27q1.27-2.76 1.26-7.53-.04-41.02.06-81.81l.54-5.89q.06-.57.46-.98l.52-.52a.29.29 0 0 0-.03-.44q-.39-.28-.43.02-.07.43-.37.11-.2-.21-.19-.59.01-.29.23-.54.61-.71 1.48-1.05.94-.37.64.6-.37 1.2.47 1.54a.54.54 0 0 1 0 1q-.8.34-.75 1.2.02.44.46.34.67-.15 1.07.41.05.08.05-.02v-.48a.19.18-74.5 0 1 .28-.16l1.06.62a.3.3 0 0 1-.08.55l-.53.13q-.34.08-.14.37.45.65 1.1.04.52-.49.7.2.22.8-.1 1.5-.11.25.02.49.47.83 1.45.59a.96.96 0 0 1 1.08.49l1.95 3.71q.21.4.65.49l1.19.26q.55.12.36.66l-.2.55q-.17.47.32.62.86.26.53 1.34a.47.46-78.5 0 0 .39.6q1.62.17 2.52 1.58.28.44.81.45 1.83 0 1.22 1.95a.74.73 19.9 0 0 .43.9l4.47 1.84q.17.07 0 .14-.25.1-.37.25-.25.29-.06.63l1.48 2.64q.24.43.67.2l1.4-.71q.42-.21.76.1l1.37 1.25q.42.39.14.89l-.79 1.42q-.18.32.16.19.2-.08.32-.26.14-.22.37-.1 2.91 1.49 3.89 4.53.05.15.22.16.13.01.28.01.19 0 .15-.18-.24-1.07.22-2 .36-.71.77-.03.41.7.21 1.5-.13.53.38.69l.98.31a.95.92 52.6 0 1-.21 1.84q-.22.01-.53.23-.35.25 0 .5l.72.52q.16.11.23-.07l.3-.91a.54.54 0 0 1 1.04.1q.58 4.09 4.41 4.87 1.03.21.04.56l-.75.28q-.95.34-.03.74l3.82 1.69q.33.14.38.5.1.68-.53 1.25-.23.21.02.4l.61.44a.29.29 0 0 1 .11.32l-.26.99q-.07.28.22.3.21.01.42-.12 1.38-.87 2.73-.46.43.13.27.55l-.34.92q-.2.55.23.95l1.88 1.71q.3.27.65.06.35-.22.7-.35.4-.16.75-.01.7.31.77 1.06.05.5.41.87l3.34 3.45q.25.26-.01.51l-.2.21q-.17.17.02.31l2.68 2.1q.36.28.69-.04l.2-.21a.46.46 0 0 1 .78.3l.24 3.75q.03.35.37.38l3.76.31q.53.04.59.57l.2 1.79a.59.57 86.6 0 0 .57.52h.74q.61 0 .61-.62v-.69q0-.86.59-.23 1.39 1.48-.27 2.95a.25.15-70.8 0 0 .08.4l.47-.39q.22-.17.48-.08 2.9 1.08 2.97 4.35a.21.21 0 0 0 .39.09l.19-.36q.19-.39.46-.04l2.61 3.38q.28.37.74.4 1.03.08 1.27.92.27.94.32 1.02.75 1.2 1.88.5.46-.29.63.22.87 2.65 2.82 4.63.72.73-.27.82-.19.01-.37.24a.39.33-8.9 0 0 .62.37q.22-.22.42-.51a.49.48 64.2 0 1 .88.31q-.18 3.07 2.63 3.96.41.13.75.4 1.91 1.53 2.98 3.54.3.55.57-.02.37-.81 1.25-.24.27.18.16.48-.73 1.91-.08 3.91a.3.3 0 0 0 .58-.09v-.72q0-.67.65-.82 1.46-.36 1.7 1.04.09.5-.09.99-.09.25-.03.53.1.42.51.29.3-.1.42-.46.26-.78.84-.21.22.22.25.48a.38.38 0 0 0 .67.19l.58-.67a.55.55 0 0 1 .96.29l.12 1.07a.29.28 11.1 0 1-.42.28l-.31-.17q-.09-.04-.14.03-.55.73.04 1.74Z"/><path fill="#ffa900" d="M15.76 124.97q.85.53 1.4 1.34.19.29.53.18l.59-.19q.61-.2.47.43l-.1.49q-.11.5.39.62 2.45.58 3.04 3.18.12.54.63.75l1.59.68q.4.17.58-.24.13-.32.43.11.25.36.32.79.11.8.7 1.29a.47.42 30.6 0 0 .72-.14q.03-.08.09-.19a.69.67-19.9 0 1 1.24.56q-.38.95-1.29 1.5a.95.95 0 0 0 .68 1.75l1.15-.24a.39.39 0 0 0 .06-.74q-1.02-.39.43-.86.3-.09.35.22.4 2.75 3.01 3.84a.6.6 0 0 1 .36.63q-.14 1.23 1.03 1.59.41.13.81-.03.84-.34 1.56.69.92 1.29-.27 2.16-.21.15-.1.38.07.14.14.29a.19.19 0 0 0 .35-.01q.41-1 1.6-1.16.3-.04.45.23.39.69-.47 1.13a.46.46 0 0 0 .26.86l.85-.09q.37-.03.7.11.8.34.79 1.1a3.71 3.39-88.9 0 0 3.27 3.73q2.09.06 2.5 2.56.21 1.21.68 1.62.85.74 2.11.43.56-.14.47.44-.21 1.29 1.03 1.36.46.03.73.41.52.74 1.21 1.08.15.07.1.24-.21.69-.61 1.25-.32.44-.28.78.05.39.37.57.46.24.46-.27v-.68a.54.41-54.5 0 1 .91-.29l.1 2.08q.01.22.23.19l1.14-.15q.61-.08.14.32-.21.17-.25.42-.09.5.39.36 1.14-.35 2.04.67.39.45-.03.87l-.34.34a.29.29 0 0 0 .18.5l1.47.14q.49.05.29-.4-.13-.29.37-.17a.13.13 0 0 1 .03.24q-1.01.49.09 2 .57.78 1.29.14l.53-.46q.47-.41-.14-.55l-.57-.13a.12.11 40.9 0 1-.02-.22q.63-.23 1.17.26.96.9 1.39 2.26.17.54.57.14l.34-.35a.29.29 0 0 1 .49.15q.37 1.84-.71 3.54a.38.38 0 0 0 .63.42l.48-.68q.37-.51.67.05l.37.68q.51.95 1.01 0l.27-.5a.12.12 0 0 1 .23.03q.04.21-.04.32-.81 1.12-.4 2.33a.38.38 0 0 0 .54.22l.57-.32q.83-.45.83.49l.01.93q0 .65.61.44.25-.09.37-.5a.09.08-60 0 1 .14-.04l2.52 2.52a.58.58 0 0 1 .15.26q.3 1.08 1.53.8a.6.59 86.6 0 1 .73.65l-.24 2.03q-.06.47.35.7l5.87 3.29q.57.32.98-.19l.17-.21a.14.14 0 0 1 .25.08l.32 4.22q.04.52.56.55l2.85.2q.65.04.58.69-.15 1.3 1.18 1.34 1.93.05.2.56-1.05.3.6 2.03a.79.78 73.8 0 0 .41.23q.64.12.82-.51a.5.5 0 0 1 .9-.14l3.81 5.89q-3.15 3.72-3.16 8.61-.08 53.58 0 107.16.01 5.83 1.38 8.7c5.27 11.03 21.61 10.55 26.14-.98q.98-2.52.97-8.62-.03-23.23.02-46.39l2.02-.12a.66.66 0 0 1 .7.63q.15 2.67 2.68 3.96.12.06.1-.07-.05-.3-.04-.65a.43.43 0 0 1 .81-.19q1.49 2.87 3.32 5.12.07.08 1.43 2.26 1 1.59 2.95 1.41a.37.36-73.8 0 1 .32.59l-.32.4q-.39.49.23.58l2.6.39q.7.1.46.77l-.16.44q-.18.51.36.54 1.56.09 1.55 1.45 0 .46.4.68l2.29 1.25a1.03 1.03 0 0 1-.49 1.94h-.6q-.12 0-.04.1.16.19.11.42-.07.28.22.24 2.98-.45 4.2 2.21.16.34.52.26l1.33-.3q.77-.17.73.62-.06 1.09.92 1.33a.52.52 0 0 1 .34.75q-.45.89.17 1.76a.46.46 0 0 0 .84-.23l.09-1.27a.22.22 0 0 1 .37-.14q.54.5.26 1.68-.14.61.61.61.69 0 .43.64-.19.47-.52.56a.02.02 0 0 0 .01.03q1.69-.41 2.18 0a.22.21-38.8 0 1-.04.36q-.14.07-.3.14-.46.18-.15.56.22.29.72.24 2.46-.27 2.45 1.89a.33.33 0 0 0 .64.1l.37-1.17a.28.28 0 0 1 .53 0q.79 2.38-.31 4.44-.27.51.28.67.45.13.51-.29a.32.32 0 0 1 .58-.13q.78 1.16 1.91.42a1.49 1.21-.7 0 1 2.11 1.67q-.53.56.17.95a.29.29 0 0 1-.04.53l-.28.1a.5.5 0 0 0-.06.92q.81.4 1.54.2.59-.16.7.45l.35 1.93q.1.55.65.53l2.71-.07a.45.44 21.8 0 1 .33.76l-.54.55q-.44.43.15.64l1.05.37q.79.27.08.71-.42.27-.21.67.16.31.32.01l.16-.31a.56.56 0 0 1 1.04.17q.36 2.02 1.38 2.3.39.1.52.48l.36 1.03q.12.35.48.25l1.45-.4q.61-.16.81.43.31.94-.47 1.66-.08.08-.09.18-.03.19 0 .35a.19.19 0 0 0 .34.08l.44-.61q.1-.14.25-.06.19.09.39.19.21.1.06.28l-.69.79q-.17.2 0 .39l.56.63a.26.26 0 0 1-.13.43l-.51.13q-.14.04-.04.14l.29.29q.24.24.54.09l.72-.37a.27.26.5 0 1 .36.36q-.14.25-.29.37-.78.6.17.83 1.08.26 1.37-.67a.22.21 32.2 0 1 .36-.08l.63.62q.25.26.61.29l3.83.34a.24.24 0 0 1 .22.24v.6q0 .1-.1.09l-2.25-.17q-.69-.05-.64.64.1 1.6 1.59 1.6a1.45.93 13.9 0 1 1.53 1.61l-.35.34q-.22.23.02.44.8.72 1.59.49a.8.64 20.6 0 1 .74 1.24q-.13.05-.27.09-.56.16.01.28 1.18.25 1.38-.78a.35.35 0 0 1 .69.03l.2 2.2q.1 1.06.86.31l.4-.4a.46.46 0 0 1 .78.28l.14 1.51a.29.29 0 0 0 .58.01l.17-1.36a.43.43 0 0 1 .78-.2q.54.77.36 1.84-.08.49.3.81l2.98 2.55a.25.25 0 0 1-.13.44q-1.16.13-1.1 1.49.01.28.27.19l1.73-.61q.65-.22.78.45.34 1.63 1.71 1.3a3.04 2.24 2.2 0 0 1.78-1.21q.25-.43 1.82 1.29-9.84 9.82-19.68 19.71-7.91 7.96-8.76 9.29c-4.87 7.73-1.72 18.51 6.79 22.33q2.8 1.26 8.56 1.26 48.54-.03 97.09 0l-11.58.45a.56.55-9.4 0 0-.51.71l.43 1.48a.19.18 47.4 0 0 .35.02q.07-.19.15-.39a.16.16 0 0 1 .31.04q.12.9-.58 1.15a.35.35 0 0 0 .14.68q1.58-.08 1.94 1.28.07.29.36.38 2.61.8 2.81 3.24a.83.81-15.7 0 1-.47.81l-.59.27q-.27.13.03.14l1.62.04a1.46 1.46 0 0 1 1.05 2.42l-.4.44a.39.39 0 0 0 .18.63l6.34 1.88q.32.1.14.37l-.32.49q-.27.43.06.81.67.77 1.56.31.78-.4.77.48-.04 2.47 1.75 4.1.26.23.58.09l1.53-.67a.29.28 10.4 0 1 .32.46l-.53.53a.69.69 0 0 0 .42 1.18q3.69.35 4.16 4.03.06.43.45.23l.47-.25q.63-.33.73.38.23 1.66 1.94 1.4.6-.09.38.47-.94 2.37 1.24 3.47.41.21.73.53l2 2q.7.7.76-.28l.17-2.69a.23.23 0 0 1 .45-.07q.52 1.28.43 2.75-.03.52-.41.88-.74.67-.15 1.96.12.26.18-.01l.36-1.62q.13-.58.7-.4l.74.23q.55.18.14.58l-.25.26q-.35.34 0 .68.88.86 1.77 1.74c1.4 1.39 1.55 2.98 3.43 4.22a.46.46 0 0 0 .71-.45l-.07-.51a.4.4 0 0 1 .73-.27l2.52 4.07q.2.31.56.37 1.32.2 1.17 1.58a.37.36 71.1 0 0 .62.31l.45-.45a.4.4 0 0 1 .68.24l.16 1.86q.06.66.65.38l.51-.24a.56.55-13.1 0 1 .8.49q.02 1.64 1.12 2.85.39.43.7-.05l.38-.59q.72-1.12.69.22-.03 1.18.92 1.61.76.35.06.81l-.45.29q-.35.22-.02.47l1.94 1.49a.48.48 0 0 1 .04.72l-.25.25q-.6.59.24.49 1.85-.22 2.73 1.71.22.48.63.8 1.94 1.56 3.6 3.43.56.63.56-.21l.01-.84a.37.36 90 0 1 .36-.37h.77q.45 0 .33.44l-.62 2.2q-.16.57.39.8.86.34.99-.5a.25.25 0 0 1 .47-.06l.57 1.25a.49.49 0 0 0 .92-.1l.1-.43a.36.35 49 0 1 .7.05q.09 1.05-.48 1.91-.34.52.16.9 1.29.97-.27 1.63a.41.41 0 0 1-.54-.24l-.12-.34a.13.12-58.4 0 0-.24.06q.04.48.34.98.26.42.75.38l3.18-.25q.51-.04.79.38l2.29 3.44q.06.09.14.01l.3-.3q.06-.06.09.03.8 2.2 3.09 2.59a1.03 1.02-76.1 0 1 .8 1.33q-.48 1.5.87 1.85a.8.79-8.1 0 1 .5.37l1.21 2.13q.28.49.84.62l3.5.8a.33.33 0 0 1 .13.58l-1.97 1.51q-.62.47.16.53.51.04.67-.39.25-.67.74-.14 1.04 1.13 2.72.91a.61.61 0 0 1 .67.76l-.2.75q-.12.45.31.64 1.71.71 2.06 2.51.04.17.17.07.28-.21.54-.43.2-.16.4-.15.32.01.43.29.15.4.57.33 1.92-.29 2.48 1.44.24.72-.21 1.07-.11.09 0 .17.51.37.34-.03a.54.28 33.8 0 1 .85.09q1.07 1.66 2.93 1.02.45-.15.92-.07l1.24.22q.26.05.43-.15l.29-.34q.26-.3.58-.06l.68.53q-40.15 10.08-81.76 12.17-11.18.57-22.37 1.11H254.18q-.09-.01-.18 0l-18.23-.73q-.76-1.3 2.58-1.55.77-.06.19-.58-1.41-1.24-3.33-1.62-.56-.1-.56-.67v-1.3a.25.25 0 0 0-.5-.06q-.06.25-.04.51.11 1.13-.72.36-.55-.5-.06-1.05a.41.41 0 0 0-.3-.68h-1.02q-.46 0-.58-.44-.54-2.06-2.77-2.78-.47-.16-.78.24-.49.63-1.43.26-.3-.12-.29-.45.08-1.9-1.63-2.78-.41-.2-.41-.66v-.75q0-.57-.56-.61-1.06-.06-1.44-1.11-.15-.42-.6-.42h-.51q-.85 0-.47-.77l.49-.95a.53.52-71.9 0 0-.38-.75l-4.1-.67a.39.39 0 0 1-.13-.73l2.32-1.3q.31-.17.05-.43-1.36-1.3-2.74-.36-.36.24-.76.06l-1.89-.85q-.22-.1-.11-.31.09-.18.19-.2.65-.11.47-.59-.68-1.86-2.53-1.66a.08.08 0 0 1-.08-.12l.19-.34a.19.19 0 0 0-.11-.27l-.93-.35q-.45-.17-.05-.42.43-.26.74-.68a.5.3-19.5 0 0-.81-.17q-.62.72-1.38.02-.7-.65-1.4-.77-.34-.06-.17-.37.18-.32.59-.37.89-.12.27-.77c-.97-1.02-2.5-1.03-3.16-1.77q-.32-.37-.27-1.02.05-.75-.41-.16l-.84 1.09a.6.6 0 0 1-.9.05l-.2-.2q-.36-.36.15-.59.23-.11.68.04a1.37.95 59.6 0 0 .18-2.34q-.84-.5-1.4.02-.36.32-.77.08l-1.73-.98q-.52-.29-.21-.81l.55-.91a.29.28-50.6 0 0-.03-.35q-.38-.41-.93-.27-.7.17-.8-.54-.28-1.91-2.22-2.27a.81.81 0 0 1-.65-.65q-.24-1.34-1.22-2.1-1.22-.95-2.34-.28-.3.17-.32-.17-.13-1.67-1.05-3.05-.18-.26-.07-.56.09-.24.09-.53.01-.76-.74-.69l-1.21.12q-.32.03-.51-.22-.21-.3-.43-.61-.31-.47.25-.47h.4a.34.34 0 0 0 .05-.67l-2.17-.29a.44.43 17.8 0 1-.33-.63l.38-.76q.26-.51-.32-.56l-1.71-.16q-.49-.04-.26-.48l.3-.55a.47.47 0 0 0-.11-.57q-1.34-1.15-.52-2.46a.44.44 0 0 0-.5-.66q-.89.26-1.2-.38-.27-.52-.76-.21-.46.29-.87.02-.67-.44-1.5-1.77-.18-.29.07-.53.17-.15.22-.38.06-.3-.21-.63-1.47-1.81-3.87-1.27-.7.16-.55-.55l.3-1.53a.35.35 0 0 0-.5-.38q-.23.11-.49.18-.71.2-.36-.45l.3-.54a.23.23 0 0 0-.11-.32l-4.61-2.15q-.54-.25-.94.19-.28.3-.61.11-1.72-.98-1.02-2.75.22-.56-.38-.61-.81-.07-1.65.1-1.03.21.31.62.59.18.14 1.01-.15.28-.42.12-1.25-.71-.56-1.92a.58.57 25.2 0 0-.3-.82l-.78-.28q-.46-.16-.59-.62-.36-1.21-1.43-.72-.47.21-.48-.3-.01-.27-.03-.51-.03-.22-.2-.34l-1.22-.86q-.46-.33-.5-.9l-.12-1.64q-.05-.68-.72-.54l-.54.12q-.66.14-.66-.54-.01-1.76-1.47-2.06-.54-.11-.52-.65.03-1.05-.9-1.47-1.3-.59-1.45-1.77-.05-.38-.43-.49-1.44-.42-2.18-1.91-.1-.19-.01-.38l.29-.63q.34-.73-.46-.65l-1.17.12a.61.6 82.5 0 1-.66-.51q-.49-2.85-3.47-3.52-.45-.1-.52-.55-.12-.75-.83-.96-.33-.1-.37-.44l-.07-.49q-.08-.6-.66-.46l-1.27.29q-.53.12-.25-.34.06-.1.12-.22a.44.44 0 0 0-.34-.64q-.99-.11-1.25.88a1.15 1.15 0 0 1-2.24-.06q-.05-.24-.04-.42.02-.36.38-.35.6.02.5.34-.2.62.39.39l.53-.21q.41-.16.21-.56l-.6-1.22q-.27-.55.33-.69.77-.17.78-.89.02-.63-.6-.5l-1.47.31q-.7.15-1.09-.45l-.22-.33q-.02-.03-.91-.43-.43-.19-.6-.68-.15-.44.17-.78.8-.87-.04-1.99-.36-.49-2.05-.98a.46.46 0 0 1-.2-.77l.37-.36a.43.43 0 0 0-.38-.73q-1.59.28-2.43-1.52-.19-.39-.19-.82v-1.24q0-.46-.43-.34-.31.09-.44.27-.42.59-.97.14-1.61-1.3-3.59-.02-.29.19-.49-.09c-.68-.95-2.03-1.82-1.85-3.07q.08-.56-.09-1.11-.54-1.78-2.35-1.26a.57.52-39.4 0 1-.38-.02q-.93-.38-1.01-1.24-.07-.62-.69-.66-1.46-.09-1.29-1.37a.76.74 18.4 0 0-.39-.76l-1.94-1.04q-.53-.28-.24-.8l.77-1.4q.4-.71-.42-.71h-.49q-.44 0-.53-.44-.33-1.6-1.8-2.43-.38-.22-.81-.28-.27-.03-.52-.14-.37-.16.04-.17.14-.01.28-.01.41 0 .22-.37-.08-.17-.34-.15-.08 0-.08-.08v-.4a.22.21 81.3 0 0-.28-.21q-.53.15-.52.51.01.19-.18.2-.15.01-.3.01-.46.01-.59-.43-.15-.53-.01-.58.28-.09.2-.38-.3-1.07-1.24-.87-.61.12-.86-.45l-.46-1.03q-.08-.18.11-.22l.6-.16a.28.28 0 0 0-.02-.54l-1.19-.21q-.05 0-.07.04-.07.11-.1.24-.06.27-.33.29l-2.34.17a.54.54 0 0 1-.59-.54v-.71a.29.29 0 0 1 .54-.14l.42.72a.67.67 0 0 0 .68.32q1.49-.22 1.37-1.78a.29.29 0 0 0-.47-.21l-.56.47a.48.48 0 0 1-.78-.34q-.13-1.5-1.53-1.49a.66.66 0 0 1-.67-.66v-1.68a.38.38 0 0 0-.73-.13l-.36.95a.23.23 0 0 1-.39.08l-2.14-2.42q-.11-.12-.12-.27-.01-.13-.01-.26 0-.48-.48-.57-1.43-.26-2.09-1.58-.24-.49-.72-.75-.7-.38-1.07-1.13-.16-.33-.54-.26l-1.58.32a.42.42 0 0 1-.23-.8q1.24-.46.63-1.73-.25-.53-.84-.53h-.85a.33.33 0 0 1-.15-.62l.34-.19a.44.44 0 0 0-.15-.83q-1.26-.16-2.33-.73-.09-.04-.13-.12-.26-.53-.26-1.15.01-.62-.61-.67-.55-.05-.46.44a.24.24 0 0 1-.41.2l-1.05-1.19q-.46-.53.19-.79l.56-.23a.49.48-24.6 0 0 .25-.67l-.29-.58a.46.46 0 0 0-.73-.12l-.23.23q-.82.82-.95-.33l-.11-.91q-.15-1.31-.59-.07-.61 1.77.64 2.93.47.44-.17.41l-1.71-.05q-.2-.01-.11-.19l.2-.39q.23-.46-.06-.88-1.04-1.52-.87-3.48.04-.45.49-.49l.81-.08a.38.38 0 0 0 .24-.64l-2.04-2.19a.27.27 0 0 0-.46.12l-.06.26q-.06.23-.29.28l-1.42.28q-.21.04-.28-.17-.21-.66-.2-1.32.01-.54-.52-.46-1.82.28-2.64-1.67-.18-.44.02-.86.13-.27-.09-.46-.33-.28-.77-.25l-1.87.14q-.55.05-.45-.49.18-1-.57-1.04-.33-.01-.13-.27.11-.14.25-.28a.44.43-48.9 0 0-.04-.66l-.79-.6q-.35-.26-.24-.67.06-.29.32-.5.47-.4-.14-.5-.83-.13-1.48.39-.5.4-.78-.18l-.56-1.22q-.14-.3-.46-.2-.15.06-.28.17-.28.26-.36-.11-.15-.64.35-.93.34-.19.34-.58c0-2.57-3.12-2.81-4.95-3.39q-.44-.14-.39-.61l.18-1.68a.47.47 0 0 0-.82-.37q-.09.1-.19.19a.35.35 0 0 1-.54-.45l.23-.32q.33-.45-.06-.86l-1.3-1.31q-.28-.28-.38-.67-.23-.95-1.22-.96-.86 0-.72.84.04.29-.09.54a.31.31 0 0 1-.59-.14q.01-2.17-2.39-1.55a.82.81-15.3 0 1-.98-.55l-.54-1.79a.21.21 0 0 1 .37-.18q.35.48.75.46.57-.04.28-.54-.69-1.15-1.9-1.23-.38-.03-.56-.36l-.15-.29q-.21-.39.23-.37.26.02.46-.16a.35.35 0 0 0-.3-.61q-1.82.38-1.62-1.35a.55.55 0 0 0-.9-.49q-.85.7-.92-.56a.49.49 0 0 0-.64-.44l-1.27.41q-.64.2-.89-.42-.34-.84-1.28-.66-.71.14-.57-.57l.46-2.31q.12-.61-.51-.6l-3.01.04q-.16.01-.04-.1.11-.11.37-.12a.85.85 0 0 0 .37-1.58l-1.41-.79a.27.26-58.5 0 0-.36.09q-.2.33-.06.56.18.28-.16.3l-1.29.08a.27.27 0 0 1-.23-.43l.79-1.07q.34-.45.05-.93-1.12-1.86-3.22-1.33-.62.15-.37-.43l.63-1.46a.45.45 0 0 0-.45-.63q-1.42.11-1.99-.96-.22-.41-.65-.59-1.63-.69-1.37-2.44.08-.51-.41-.69-1.4-.53-1.65-2.08-.07-.45-.52-.45-.16.01-.28.09-.28.18-.59.07-1.44-.49-1.22-1.68.08-.42-.27-.68l-2.08-1.56q-.3-.22-.68-.25l-2.51-.18a.38.38 0 0 1-.35-.42q.08-.73-.26-1.19-.8-1.08-.84-1.19-.18-.51-.3-1.03-.11-.52-.44-.94-1.19-1.52-1.91-3.28-.15-.37-.42-.08l-.22.24q-.26.3-.65.21-2.77-.59-2.58-3.49.03-.53-.46-.34l-1.31.51a.4.4 0 0 1-.39-.69q1.01-.76.35-1.69-.24-.35-.27-.78-.04-.51-.31-.97a.25.25 0 0 1 .17-.38l.67-.13q.55-.1.05-.36-1.3-.7-2.76-.81a.38.38 0 0 1-.3-.57l.71-1.23a.31.31 0 0 0-.4-.44q-.15.07-.31.17a.37.37 0 0 1-.54-.19q-1.02-2.6-4-2.07-.33.06-.46-.26l-.67-1.59L0 257.62v-18.37q.51-13.01 1.27-26 2.61-45 14.49-88.28Z"/><path d="M403.91 272.31v108.16c.13 8.17-1.4 15.05-9.21 18.58q-2.96 1.34-8.61 1.33-49.45-.06-98.87-.02-48.55-.03-97.09 0-5.76 0-8.56-1.26c-8.51-3.82-11.66-14.6-6.79-22.33q.85-1.33 8.76-9.29 9.84-9.89 19.68-19.71l67.67-67.67 58.74-58.75q23.27-23.24 46.52-46.53 3.69-3.7 6.7-4.91c10.11-4.06 20.88 3.41 20.91 14.59q.12 43.88.15 87.81Z"/><path fill="#ffb800" d="m207.28 225.67 4.79.33q.53.04.93.4l2.31 2.09q.28.25.02.51l-.35.35q-.36.36.06.64l4.49 2.93q.41.27.41.76v.26q0 .32.29.44 1.31.54 1.98 1.62.13.21.38.24l.78.1q.83.11.35.79l-.83 1.2q-.13.18.03.35l.24.23q.41.41.76-.06l.25-.35q.36-.5.55.09.9 2.74 3.85 3.49.48.11.41.6-.13.91.45 1.49.59.59.66.81.23.64-.11 1.28-.04.08.04.12.13.08.27.14.01.01.11-.11l1.93-2.19a.5.5 0 0 1 .8.61q-.66 1.01.17 1.99a.46.46 0 0 0 .81-.26l.09-1.09a.21.21 0 0 1 .39-.08q.48.91.28 1.99-.09.48-.57.53-.22.02-.43.08-.26.07-.44.28-.59.66-.14 1.03.35.28.67-.03.65-.64 1.49-.24.49.24.99 1.05.69 1.16 1.45 2.24.3.42.8.51 1.27.23 1.93 1.37.25.42-.09.77l-.28.27q-.56.57.24.6l1.99.06a.62.61 86.5 0 1 .58.52l.12.8q.07.46.5.29.22-.09.33-.36.35-.88.88-.1.46.67.09 1.49-.21.46.28.59 1.7.48 1.95 2.21.08.62.69.52.79-.12 1.29.61.3.42.81.39 1.28-.07 1.13 1.32-.05.41.3.64l.37.24q.24.16.23.45-.07 1.24.64 2.31.58.87 1.35.17.16-.15.51-.22.36-.08.71.03 1.2.35.86 1.94-.13.59.35.96.69.54.69 1.39.01.56.15.76.16.21.4.25.5.1.44-.41-.07-.53.06-1.02a.32.31 50.1 0 1 .62.06l.22 2.51q.05.64.7.64h1.08a.41.41 0 0 1 .29.71l-.64.64q-.35.36.1.58.29.13.6.08.52-.09.61-.6.41-2.24 2.76-2.18a.36.36 0 0 1 .22.64q-.12.1-.27.13-.78.12-.47.47l.96 1.07q.34.38.04.8l-.66.93a.49.49 0 0 0 .25.75q.85.26.5 1.38-.2.61.44.49 2.2-.44 3.77-2.11.34-.36.79-.14 1.13.55.79 1.58l-67.67 67.67q-1.57-1.72-1.82-1.29a3.04 2.24 2.2 0 1-1.78 1.21q-1.37.33-1.71-1.3-.13-.67-.78-.45l-1.73.61q-.26.09-.27-.19-.06-1.36 1.1-1.49a.25.25 0 0 0 .13-.44l-2.98-2.55q-.38-.32-.3-.81.18-1.07-.36-1.84a.43.43 0 0 0-.78.2l-.17 1.36a.29.29 0 0 1-.58-.01l-.14-1.51a.46.46 0 0 0-.78-.28l-.4.4q-.76.75-.86-.31l-.2-2.2a.35.35 0 0 0-.69-.03q-.2 1.03-1.38.78-.57-.12-.01-.28.14-.04.27-.09a.8.64 20.6 0 0-.74-1.24q-.79.23-1.59-.49-.24-.21-.02-.44l.35-.34a1.45.93 13.9 0 0-1.53-1.61q-1.49 0-1.59-1.6-.05-.69.64-.64l2.25.17q.1.01.1-.09v-.6a.24.24 0 0 0-.22-.24l-3.83-.34q-.36-.03-.61-.29l-.63-.62a.22.21 32.2 0 0-.36.08q-.29.93-1.37.67-.95-.23-.17-.83.15-.12.29-.37a.27.26.5 0 0-.36-.36l-.72.37q-.3.15-.54-.09l-.29-.29q-.1-.1.04-.14l.51-.13a.26.26 0 0 0 .13-.43l-.56-.63q-.17-.19 0-.39l.69-.79q.15-.18-.06-.28-.2-.1-.39-.19-.15-.08-.25.06l-.44.61a.19.19 0 0 1-.34-.08q-.03-.16 0-.35.01-.1.09-.18.78-.72.47-1.66-.2-.59-.81-.43l-1.45.4q-.36.1-.48-.25l-.36-1.03q-.13-.38-.52-.48-1.02-.28-1.38-2.3a.56.56 0 0 0-1.04-.17l-.16.31q-.16.3-.32-.01-.21-.4.21-.67.71-.44-.08-.71l-1.05-.37q-.59-.21-.15-.64l.54-.55a.45.44 21.8 0 0-.33-.76l-2.71.07q-.55.02-.65-.53l-.35-1.93q-.11-.61-.7-.45-.73.2-1.54-.2a.5.5 0 0 1 .06-.92l.28-.1a.29.29 0 0 0 .04-.53q-.7-.39-.17-.95a1.49 1.21-.7 0 0-2.11-1.67q-1.13.74-1.91-.42a.32.32 0 0 0-.58.13q-.06.42-.51.29-.55-.16-.28-.67 1.1-2.06.31-4.44a.28.28 0 0 0-.53 0l-.37 1.17a.33.33 0 0 1-.64-.1q.01-2.16-2.45-1.89-.5.05-.72-.24-.31-.38.15-.56.16-.07.3-.14a.22.21-38.8 0 0 .04-.36q-.49-.41-2.18 0a.02.02 0 0 1-.01-.03q.33-.09.52-.56.26-.64-.43-.64-.75 0-.61-.61.28-1.18-.26-1.68a.22.22 0 0 0-.37.14l-.09 1.27a.46.46 0 0 1-.84.23q-.62-.87-.17-1.76a.52.52 0 0 0-.34-.75q-.98-.24-.92-1.33.04-.79-.73-.62l-1.33.3q-.36.08-.52-.26-1.22-2.66-4.2-2.21-.29.04-.22-.24.05-.23-.11-.42-.08-.1.04-.1h.6a1.03 1.03 0 0 0 .49-1.94l-2.29-1.25q-.4-.22-.4-.68.01-1.36-1.55-1.45-.54-.03-.36-.54l.16-.44q.24-.67-.46-.77l-2.6-.39q-.62-.09-.23-.58l.32-.4a.37.36-73.8 0 0-.32-.59q-1.95.18-2.95-1.41-1.36-2.18-1.43-2.26-1.83-2.25-3.32-5.12a.43.43 0 0 0-.81.19q-.01.35.04.65.02.13-.1.07-2.53-1.29-2.68-3.96a.66.66 0 0 0-.7-.63l-2.02.12-.01-44.57a.55.55 0 0 1 .55-.55l86.59.05Z"/><path fill="#ffc600" d="M502.47 362.04c-5.77 28.91-15.8 57.71-32.35 81.85q-2.04 1.13-3.18.77a.14.14 0 0 1-.01-.26q.66-.24.81-.73.19-.7-.48-.43-1.55.62-2.61-.62-.29-.33-.71-.46-.94-.29-.86-1.35.04-.46-.38-.64l-1.25-.54q-.28-.12-.34-.42-.1-.49.25-.27a.2.2 0 0 0 .25-.31q-1.25-1.28-2.86-1.62-.48-.1-.66-.55-.28-.75-1.07-.47a.22.21 74.9 0 0-.14.25q.1.43-.26.76a.29.29 0 0 1-.44-.36l1.03-1.72a.55.54-66.8 0 0-.32-.81l-1.27-.34q-.51-.14-.51-.68l.01-1.56a.54.53-23 0 0-.92-.37l-1.41 1.44q-.6.63-.7-.24-.14-1.3.81-2.2a.5.5 0 0 0-.55-.82l-2.55 1.19q-.45.21-.33-.27.07-.3.39-.55.43-.32-.02-.62l-.36-.22q-.45-.3-.37-.84.15-.89-.69-1.16-.45-.14-.59-.58-.55-1.73-2.35-1.38a.31.3 84.5 0 1-.36-.3v-.25q0-.27.25-.33l1.4-.37a.24.24 0 0 0-.08-.48q-3.32.27-5.96-1.66-.95-.69.04-1.31.36-.22.34-.71a1.25.22-90 0 0-.17-.96l-1.32-1.7q-.39-.51-.91-.13l-1.03.74q-.47.34-.34-.23l.12-.53a.23.23 0 0 0-.2-.28q-.39-.03-.78-.18-.3-.12-.3-.45v-.27q0-.17.16-.23l1.33-.46a.38.38 0 0 0-.14-.74q-1.59.05-1.6-1.44a.4.4 0 0 0-.61-.34l-1.55.93q-.53.31-.43-.3.34-1.92-1.53-2.08-.48-.04-.47-.52.01-.31.42-.33a.19.18 76.9 0 0 .16-.26q-.65-1.42-2.07-1.28a.47.47 0 0 1-.5-.6l.63-2.17a.29.29 0 0 0-.55-.19l-.37.89q-.29.69-.48-.03-.66-2.57-2.89-4.08-.33-.23-.56.1-.19.27-.44.29-.55.04-.22-.4.31-.41.27-.84a.3.3 0 0 0-.52-.19l-.43.43a.21.21 0 0 1-.34-.23q.17-.4.67-.54.69-.19.1-.61-1.48-1.04-3.12-.45a.45.45 0 0 1-.47-.74l.35-.34a.4.4 0 0 0-.03-.59q-.67-.53-1.07.24a.44.44 0 0 1-.8-.02l-.53-1.15a.16.16 0 0 0-.29 0q-.06.12-.12.25-.2.47-.65.26-.16-.07-.25-.17-.28-.29.11-.22.98.18.72-1.04-.08-.35-.42-.45l-.98-.3q-.38-.11-.53-.47-.94-2.25-3.08-3.27-.44-.21-.71-.6-.72-1.04-1.87-1.55a.59.58-62 0 1-.25-.84l.51-.84q.26-.43-.22-.28-2.73.82-3.65-1.85-.37-1.07-1.35-1.15a.12.12 0 0 0-.09.2q.17.16.32.32.62.63-.16.22l-.76-.39q-.44-.22-.25-.68.81-1.91-.67-3.92V272.31l1.42-.99q.41-.28.54.2.47 1.71-.78 2.72a.56.55-22.3 0 0-.21.49l.02.3q.03.37.29.11l.36-.36q.4-.41.43.17.2 3.85 3.92 4.06.54.04.7.55l.46 1.43q.13.4.55.39l1.34-.04q.39-.02.57.33 1.06 2.06 3.32 2.52.41.08.66.43.71 1.03-.17 1.56-.29.18-.13.49.09.17.27.18.2.01.28-.18.37-.81 1.56-.71.35.03.38.37.16 1.67 1.53 2.66a.52.51 29.1 0 1 .18.62l-.32.74q-.18.41.25.53l1.09.3q.25.07.41.28l.3.41q.4.53.78-.02.13-.2.22-.38a.39.38-36.1 0 1 .73.11q.05.36.39.49.33.13.44.46.93 2.77 3.66 3.7.5.17.52.7l.07 1.62a.47.47 0 0 0 .9.16l.4-.92a.37.37 0 0 1 .58-.13l1.1.94q.26.23.07.51l-1.47 2.21a.35.35 0 0 0 .29.55h.47a.77.77 0 0 0 .76-.65l.09-.61a.29.29 0 0 1 .56-.04q.77 2.41 3.11 2.63.48.05.38.52l-.54 2.61q-.12.54.43.57 1.41.08 2.46-.74.74-.58 1.57-.14l.67.35q.52.27-.05.38-1.06.2-.82 1a1.04.06 73.8 0 0 .31.88q1.21 1.06.95 2.82a.25.25 0 0 0 .48.12l.44-1.15a.49.47 11.4 0 1 .48-.31l.96.06a.45.45 0 0 1 .38.64q-.34.77.39 1.23a.43.41 24.6 0 1 .18.46l-.32 1.16a.32.32 0 0 0 .3.41l1.92.03a.53.53 0 0 1 .52.54l-.01 1.42a.72.72 0 0 0 1.21.53q.53-.49 1.39-.23a.27.27 0 0 1-.07.53q-.69.02-.51.89.1.49.58.34.22-.06.3.19.11.31-.13.54l-.34.35q-.68.68.28.75l2.76.21a.47.47 0 0 1 .43.41l.29 2.05a.67.66 76.1 0 0 .88.54q.74-.27.95.36.16.46.58.71l5.6 3.26q.26.15.1.41l-.37.56q-.28.43-.61.04l-1.14-1.39a.58.58 0 0 0-.85-.05l-.2.19q-.33.3.05.54.87.53 1.57 1.33.37.42.06.88l-.2.3q-.11.15 0 .31.68.97 1.47.59.45-.21.86.06 1.24.83 1.39 2.16.13 1.15.66.11.28-.54.27-1.14 0-.28.02-.55.05-.53.33-.47.13.02.15.16l.35 2.97a.45.44 82.3 0 0 .5.39q.69-.09.71-.55.01-.06.06-.03l.55.22q.15.06.02.16l-.61.43a.47.47 0 0 0 .17.84q1.03.23.73 1.22a.4.4 0 0 0 .73.33q.51-.83 1.76-.27a.35.35 0 0 1-.05.65q-.33.08-.44.4a.4.4 0 0 0 .72.34l.18-.32a.43.43 0 0 1 .67-.09l.93.93a.54.54 0 0 1 .01.76l-.47.5a.3.29-72.9 0 0 .26.5q1.79-.31 2.96.93.3.32.56-.03.13-.18.18-.34.15-.49.66-.44 1.34.14 1.05 1.68-.1.53.24.95.49.62.8 1.3.2.44.58.75 1.02.86.52 2.3-.18.51.33.71 2.32.92 3.74 3.02a.65.63 75.6 0 0 .47.29l.86.11a.38.38 0 0 1 .18.68l-.56.42a.17.17 0 0 0 0 .27l.36.27a.42.42 0 0 0 .64-.16l.2-.43q.17-.34.43-.06l1.93 2.06q.41.44-.12.73l-.51.28q-.43.24-.25.69.47 1.2 1.42.51.88-.63.77.1-.09.63.27 1.13 1.57 2.23.99-.12-.06-.25.37-.48a.35.34 82.1 0 1 .5.38q-.35 1.58.26 3.05.2.48.73.46 1.58-.09 2.15 1.2.26.61.76.17.9-.8 2.3-.1a.89.88-86.7 0 1 .44.5q.42 1.1-.71 1.46-.55.18-.01.39.7.28 1.35.01.51-.21.79-.92.69-1.77 1.06-3.65.09-.45.2 0 .59 2.35 1.16 1.06Z"/><path fill="#ffa000" d="m.54 271.93.67 1.59q.13.32.46.26 2.98-.53 4 2.07a.37.37 0 0 0 .54.19q.16-.1.31-.17a.31.31 0 0 1 .4.44l-.71 1.23a.38.38 0 0 0 .3.57q1.46.11 2.76.81.5.26-.05.36l-.67.13a.25.25 0 0 0-.17.38q.27.46.31.97.03.43.27.78.66.93-.35 1.69a.4.4 0 0 0 .39.69l1.31-.51q.49-.19.46.34-.19 2.9 2.58 3.49.39.09.65-.21l.22-.24q.27-.29.42.08.72 1.76 1.91 3.28.33.42.44.94.12.52.3 1.03.04.11.84 1.19.34.46.26 1.19a.38.38 0 0 0 .35.42l2.51.18q.38.03.68.25l2.08 1.56q.35.26.27.68-.22 1.19 1.22 1.68.31.11.59-.07.12-.08.28-.09.45 0 .52.45.25 1.55 1.65 2.08.49.18.41.69-.26 1.75 1.37 2.44.43.18.65.59.57 1.07 1.99.96a.45.45 0 0 1 .45.63l-.63 1.46q-.25.58.37.43 2.1-.53 3.22 1.33.29.48-.05.93l-.79 1.07a.27.27 0 0 0 .23.43l1.29-.08q.34-.02.16-.3-.14-.23.06-.56a.27.26-58.5 0 1 .36-.09l1.41.79a.85.85 0 0 1-.37 1.58q-.26.01-.37.12-.12.11.04.1l3.01-.04q.63-.01.51.6l-.46 2.31q-.14.71.57.57.94-.18 1.28.66.25.62.89.42l1.27-.41a.49.49 0 0 1 .64.44q.07 1.26.92.56a.55.55 0 0 1 .9.49q-.2 1.73 1.62 1.35a.35.35 0 0 1 .3.61q-.2.18-.46.16-.44-.02-.23.37l.15.29q.18.33.56.36 1.21.08 1.9 1.23.29.5-.28.54-.4.02-.75-.46a.21.21 0 0 0-.37.18l.54 1.79a.82.81-15.3 0 0 .98.55q2.4-.62 2.39 1.55a.31.31 0 0 0 .59.14q.13-.25.09-.54-.14-.84.72-.84.99.01 1.22.96.1.39.38.67l1.3 1.31q.39.41.06.86l-.23.32a.35.35 0 0 0 .54.45q.1-.09.19-.19a.47.47 0 0 1 .82.37l-.18 1.68q-.05.47.39.61c1.83.58 4.95.82 4.95 3.39q0 .39-.34.58-.5.29-.35.93.08.37.36.11.13-.11.28-.17.32-.1.46.2l.56 1.22q.28.58.78.18.65-.52 1.48-.39.61.1.14.5-.26.21-.32.5-.11.41.24.67l.79.6a.44.43-48.9 0 1 .04.66q-.14.14-.25.28-.2.26.13.27.75.04.57 1.04-.1.54.45.49l1.87-.14q.44-.03.77.25.22.19.09.46-.2.42-.02.86.82 1.95 2.64 1.67.53-.08.52.46-.01.66.2 1.32.07.21.28.17l1.42-.28q.23-.05.29-.28l.06-.26a.27.27 0 0 1 .46-.12l2.04 2.19a.38.38 0 0 1-.24.64l-.81.08q-.45.04-.49.49-.17 1.96.87 3.48.29.42.06.88l-.2.39q-.09.18.11.19l1.71.05q.64.03.17-.41-1.25-1.16-.64-2.93.44-1.24.59.07l.11.91q.13 1.15.95.33l.23-.23a.46.46 0 0 1 .73.12l.29.58a.49.48-24.6 0 1-.25.67l-.56.23q-.65.26-.19.79l1.05 1.19a.24.24 0 0 0 .41-.2q-.09-.49.46-.44.62.05.61.67 0 .62.26 1.15.04.08.13.12 1.07.57 2.33.73a.44.44 0 0 1 .15.83l-.34.19a.33.33 0 0 0 .15.62h.85q.59 0 .84.53.61 1.27-.63 1.73a.42.42 0 0 0 .23.8l1.58-.32q.38-.07.54.26.37.75 1.07 1.13.48.26.72.75.66 1.32 2.09 1.58.48.09.48.57 0 .13.01.26.01.15.12.27l2.14 2.42a.23.23 0 0 0 .39-.08l.36-.95a.38.38 0 0 1 .73.13v1.68a.66.66 0 0 0 .67.66q1.4-.01 1.53 1.49a.48.48 0 0 0 .78.34l.56-.47a.29.29 0 0 1 .47.21q.12 1.56-1.37 1.78a.67.67 0 0 1-.68-.32l-.42-.72a.29.29 0 0 0-.54.14v.71a.54.54 0 0 0 .59.54l2.34-.17q.27-.02.33-.29.03-.13.1-.24.02-.04.07-.04l1.19.21a.28.28 0 0 1 .02.54l-.6.16q-.19.04-.11.22l.46 1.03q.25.57.86.45.94-.2 1.24.87.08.29-.2.38-.14.05.01.58.13.44.59.43.15 0 .3-.01.19-.01.18-.2-.01-.36.52-.51a.22.21 81.3 0 1 .28.21v.4q0 .08.08.08.26-.02.34.15.19.37-.22.37-.14 0-.28.01-.41.01-.04.17.25.11.52.14.43.06.81.28 1.47.83 1.8 2.43.09.44.53.44h.49q.82 0 .42.71l-.77 1.4q-.29.52.24.8l1.94 1.04a.76.74 18.4 0 1 .39.76q-.17 1.28 1.29 1.37.62.04.69.66.08.86 1.01 1.24a.57.52-39.4 0 0 .38.02q1.81-.52 2.35 1.26.17.55.09 1.11c-.18 1.25 1.17 2.12 1.85 3.07q.2.28.49.09 1.98-1.28 3.59.02.55.45.97-.14.13-.18.44-.27.43-.12.43.34v1.24q0 .43.19.82.84 1.8 2.43 1.52a.43.43 0 0 1 .38.73l-.37.36a.46.46 0 0 0 .2.77q1.69.49 2.05.98.84 1.12.04 1.99-.32.34-.17.78.17.49.6.68.89.4.91.43l.22.33q.39.6 1.09.45l1.47-.31q.62-.13.6.5-.01.72-.78.89-.6.14-.33.69l.6 1.22q.2.4-.21.56l-.53.21q-.59.23-.39-.39.1-.32-.5-.34-.36-.01-.38.35-.01.18.04.42a1.15 1.15 0 0 0 2.24.06q.26-.99 1.25-.88a.44.44 0 0 1 .34.64q-.06.12-.12.22-.28.46.25.34l1.27-.29q.58-.14.66.46l.07.49q.04.34.37.44.71.21.83.96.07.45.52.55 2.98.67 3.47 3.52a.61.6 82.5 0 0 .66.51l1.17-.12q.8-.08.46.65l-.29.63q-.09.19.01.38.74 1.49 2.18 1.91.38.11.43.49.15 1.18 1.45 1.77.93.42.9 1.47-.02.54.52.65 1.46.3 1.47 2.06 0 .68.66.54l.54-.12q.67-.14.72.54l.12 1.64q.04.57.5.9l1.22.86q.17.12.2.34.02.24.03.51.01.51.48.3 1.07-.49 1.43.72.13.46.59.62l.78.28a.58.57 25.2 0 1 .3.82q-.69 1.21.56 1.92.27.16.42-.12.45-.83-.14-1.01-1.34-.41-.31-.62.84-.17 1.65-.1.6.05.38.61-.7 1.77 1.02 2.75.33.19.61-.11.4-.44.94-.19l4.61 2.15a.23.23 0 0 1 .11.32l-.3.54q-.35.65.36.45.26-.07.49-.18a.35.35 0 0 1 .5.38l-.3 1.53q-.15.71.55.55 2.4-.54 3.87 1.27.27.33.21.63-.05.23-.22.38-.25.24-.07.53.83 1.33 1.5 1.77.41.27.87-.02.49-.31.76.21.31.64 1.2.38a.44.44 0 0 1 .5.66q-.82 1.31.52 2.46a.47.47 0 0 1 .11.57l-.3.55q-.23.44.26.48l1.71.16q.58.05.32.56l-.38.76a.44.43 17.8 0 0 .33.63l2.17.29a.34.34 0 0 1-.05.67h-.4q-.56 0-.25.47.22.31.43.61.19.25.51.22l1.21-.12q.75-.07.74.69 0 .29-.09.53-.11.3.07.56.92 1.38 1.05 3.05.02.34.32.17 1.12-.67 2.34.28.98.76 1.22 2.1a.81.81 0 0 0 .65.65q1.94.36 2.22 2.27.1.71.8.54.55-.14.93.27a.29.28-50.6 0 1 .03.35l-.55.91q-.31.52.21.81l1.73.98q.41.24.77-.08.56-.52 1.4-.02a1.37.95 59.6 0 1-.18 2.34q-.45-.15-.68-.04-.51.23-.15.59l.2.2a.6.6 0 0 0 .9-.05l.84-1.09q.46-.59.41.16-.05.65.27 1.02c.66.74 2.19.75 3.16 1.77q.62.65-.27.77-.41.05-.59.37-.17.31.17.37.7.12 1.4.77.76.7 1.38-.02a.5.3-19.5 0 1 .81.17q-.31.42-.74.68-.4.25.05.42l.93.35a.19.19 0 0 1 .11.27l-.19.34a.08.08 0 0 0 .08.12q1.85-.2 2.53 1.66.18.48-.47.59-.1.02-.19.2-.11.21.11.31l1.89.85q.4.18.76-.06 1.38-.94 2.74.36.26.26-.05.43l-2.32 1.3a.39.39 0 0 0 .13.73l4.1.67a.53.52-71.9 0 1 .38.75l-.49.95q-.38.77.47.77h.51q.45 0 .6.42.38 1.05 1.44 1.11.56.04.56.61v.75q0 .46.41.66 1.71.88 1.63 2.78-.01.33.29.45.94.37 1.43-.26.31-.4.78-.24 2.23.72 2.77 2.78.12.44.58.44h1.02a.41.41 0 0 1 .3.68q-.49.55.06 1.05.83.77.72-.36-.02-.26.04-.51a.25.25 0 0 1 .5.06v1.3q0 .57.56.67 1.92.38 3.33 1.62.58.52-.19.58-3.34.25-2.58 1.55-51.01-.78-95.02-10.71c-28.01-6.33-56.1-17.25-78.26-34.72q-8.08-6.36-14.31-13.88c-24.84-29.95-36.5-70.95-41.93-108.71Q1.17 307.82.54 271.93Z"/><path fill="#ffb800" d="M403.91 380.47q1.48 2.01.67 3.92-.19.46.25.68l.76.39q.78.41.16-.22-.15-.16-.32-.32a.12.12 0 0 1 .09-.2q.98.08 1.35 1.15.92 2.67 3.65 1.85.48-.15.22.28l-.51.84a.59.58-62 0 0 .25.84q1.15.51 1.87 1.55.27.39.71.6 2.14 1.02 3.08 3.27.15.36.53.47l.98.3q.34.1.42.45.26 1.22-.72 1.04-.39-.07-.11.22.09.1.25.17.45.21.65-.26.06-.13.12-.25a.16.16 0 0 1 .29 0l.53 1.15a.44.44 0 0 0 .8.02q.4-.77 1.07-.24a.4.4 0 0 1 .03.59l-.35.34a.45.45 0 0 0 .47.74q1.64-.59 3.12.45.59.42-.1.61-.5.14-.67.54a.21.21 0 0 0 .34.23l.43-.43a.3.3 0 0 1 .52.19q.04.43-.27.84-.33.44.22.4.25-.02.44-.29.23-.33.56-.1 2.23 1.51 2.89 4.08.19.72.48.03l.37-.89a.29.29 0 0 1 .55.19l-.63 2.17a.47.47 0 0 0 .5.6q1.42-.14 2.07 1.28a.19.18 76.9 0 1-.16.26q-.41.02-.42.33-.01.48.47.52 1.87.16 1.53 2.08-.1.61.43.3l1.55-.93a.4.4 0 0 1 .61.34q.01 1.49 1.6 1.44a.38.38 0 0 1 .14.74l-1.33.46q-.16.06-.16.23v.27q0 .33.3.45.39.15.78.18a.23.23 0 0 1 .2.28l-.12.53q-.13.57.34.23l1.03-.74q.52-.38.91.13l1.32 1.7a1.25.22-90 0 1 .17.96q.02.49-.34.71-.99.62-.04 1.31 2.64 1.93 5.96 1.66a.24.24 0 0 1 .08.48l-1.4.37q-.25.06-.25.33v.25a.31.3 84.5 0 0 .36.3q1.8-.35 2.35 1.38.14.44.59.58.84.27.69 1.16-.08.54.37.84l.36.22q.45.3.02.62-.32.25-.39.55-.12.48.33.27l2.55-1.19a.5.5 0 0 1 .55.82q-.95.9-.81 2.2.1.87.7.24l1.41-1.44a.54.53-23 0 1 .92.37l-.01 1.56q0 .54.51.68l1.27.34a.55.54-66.8 0 1 .32.81l-1.03 1.72a.29.29 0 0 0 .44.36q.36-.33.26-.76a.22.21 74.9 0 1 .14-.25q.79-.28 1.07.47.18.45.66.55 1.61.34 2.86 1.62a.2.2 0 0 1-.25.31q-.35-.22-.25.27.06.3.34.42l1.25.54q.42.18.38.64-.08 1.06.86 1.35.42.13.71.46 1.06 1.24 2.61.62.67-.27.48.43-.15.49-.81.73a.14.14 0 0 0 .01.26q1.14.36 3.18-.77-16.59 22.89-42.84 36.18-24.4 12.36-49.28 18.65l-.68-.53q-.32-.24-.58.06l-.29.34q-.17.2-.43.15l-1.24-.22q-.47-.08-.92.07-1.86.64-2.93-1.02a.54.28 33.8 0 0-.85-.09q.17.4-.34.03-.11-.08 0-.17.45-.35.21-1.07-.56-1.73-2.48-1.44-.42.07-.57-.33-.11-.28-.43-.29-.2-.01-.4.15-.26.22-.54.43-.13.1-.17-.07-.35-1.8-2.06-2.51-.43-.19-.31-.64l.2-.75a.61.61 0 0 0-.67-.76q-1.68.22-2.72-.91-.49-.53-.74.14-.16.43-.67.39-.78-.06-.16-.53l1.97-1.51a.33.33 0 0 0-.13-.58l-3.5-.8q-.56-.13-.84-.62l-1.21-2.13a.8.79-8.1 0 0-.5-.37q-1.35-.35-.87-1.85a1.03 1.02-76.1 0 0-.8-1.33q-2.29-.39-3.09-2.59-.03-.09-.09-.03l-.3.3q-.08.08-.14-.01l-2.29-3.44q-.28-.42-.79-.38l-3.18.25q-.49.04-.75-.38-.3-.5-.34-.98a.13.12-58.4 0 1 .24-.06l.12.34a.41.41 0 0 0 .54.24q1.56-.66.27-1.63-.5-.38-.16-.9.57-.86.48-1.91a.36.35 49 0 0-.7-.05l-.1.43a.49.49 0 0 1-.92.1l-.57-1.25a.25.25 0 0 0-.47.06q-.13.84-.99.5-.55-.23-.39-.8l.62-2.2q.12-.44-.33-.44h-.77a.37.36 90 0 0-.36.37l-.01.84q0 .84-.56.21-1.66-1.87-3.6-3.43-.41-.32-.63-.8-.88-1.93-2.73-1.71-.84.1-.24-.49l.25-.25a.48.48 0 0 0-.04-.72l-1.94-1.49q-.33-.25.02-.47l.45-.29q.7-.46-.06-.81-.95-.43-.92-1.61.03-1.34-.69-.22l-.38.59q-.31.48-.7.05-1.1-1.21-1.12-2.85a.56.55-13.1 0 0-.8-.49l-.51.24q-.59.28-.65-.38l-.16-1.86a.4.4 0 0 0-.68-.24l-.45.45a.37.36 71.1 0 1-.62-.31q.15-1.38-1.17-1.58-.36-.06-.56-.37l-2.52-4.07a.4.4 0 0 0-.73.27l.07.51a.46.46 0 0 1-.71.45c-1.88-1.24-2.03-2.83-3.43-4.22q-.89-.88-1.77-1.74-.35-.34 0-.68l.25-.26q.41-.4-.14-.58l-.74-.23q-.57-.18-.7.4l-.36 1.62q-.06.27-.18.01-.59-1.29.15-1.96.38-.36.41-.88.09-1.47-.43-2.75a.23.23 0 0 0-.45.07l-.17 2.69q-.06.98-.76.28l-2-2q-.32-.32-.73-.53-2.18-1.1-1.24-3.47.22-.56-.38-.47-1.71.26-1.94-1.4-.1-.71-.73-.38l-.47.25q-.39.2-.45-.23-.47-3.68-4.16-4.03a.69.69 0 0 1-.42-1.18l.53-.53a.29.28 10.4 0 0-.32-.46l-1.53.67q-.32.14-.58-.09-1.79-1.63-1.75-4.1.01-.88-.77-.48-.89.46-1.56-.31-.33-.38-.06-.81l.32-.49q.18-.27-.14-.37l-6.34-1.88a.39.39 0 0 1-.18-.63l.4-.44a1.46 1.46 0 0 0-1.05-2.42l-1.62-.04q-.3-.01-.03-.14l.59-.27a.83.81-15.7 0 0 .47-.81q-.2-2.44-2.81-3.24-.29-.09-.36-.38-.36-1.36-1.94-1.28a.35.35 0 0 1-.14-.68q.7-.25.58-1.15a.16.16 0 0 0-.31-.04q-.08.2-.15.39a.19.18 47.4 0 1-.35-.02l-.43-1.48a.56.55-9.4 0 1 .51-.71l11.58-.45q49.42-.04 98.87.02 5.65.01 8.61-1.33c7.81-3.53 9.34-10.41 9.21-18.58Z"/></svg>