<svg width="172" height="116" fill="none" xmlns="http://www.w3.org/2000/svg"><path d="M28 85.485c23.994-10.003 73.073-34.313 77.436-51.52 5.453-21.508-34.355-31.011-39.263 0-3.683 23.271 0 81.532 52.351 81.032S267.942-25.903 407 5.608" stroke="#DADFE9" stroke-dasharray="4 4"/><circle cx="28" cy="83" r="28" fill="#E9D758"/><path fill-rule="evenodd" clip-rule="evenodd" d="M27.985 92.606s7.672-2.323 7.672-8.727c0-6.405.278-6.905-.337-7.521-.617-.616-6.33-2.608-7.335-2.608-1.006 0-6.72 1.992-7.334 2.608-.616.616-.338 1.116-.338 7.521 0 6.404 7.672 8.727 7.672 8.727z" stroke="#fff" stroke-width="1.5" stroke-linecap="round" stroke-linejoin="round"/><path d="M25.386 82.875l1.892 1.895 3.898-3.9" stroke="#fff" stroke-width="1.5" stroke-linecap="round" stroke-linejoin="round"/></svg>